<svg width="298" height="327" viewBox="0 0 298 327" fill="none" xmlns="http://www.w3.org/2000/svg">
<path d="M223.634 22.7109H15.5162V230.829H223.634V22.7109Z" fill="#DBDBDB"/>
<path d="M96.5094 117.804C107.515 129.18 164.151 183.219 188.635 177.902C218.313 171.472 252.691 153.17 266.17 140.186C273.713 132.89 236.986 96.7817 229.319 102.47C217.448 111.373 188.635 126.336 183.565 128.438C178.495 130.541 135.338 108.653 110.236 100.244C87.6059 92.7009 88.7188 109.766 96.5094 117.804Z" fill="#D3766A"/>
<path d="M286.574 123.74C280.02 132.643 259.616 145.504 253.433 146.617C247.25 147.853 224.249 113.847 226.228 107.664C228.207 101.605 252.567 73.5342 263.449 70.5664C274.331 67.8459 293.375 114.589 286.574 123.74Z" fill="#D3766A"/>
<path d="M229.565 102.223C229.565 102.223 233.399 88.3729 232.41 75.8833C231.668 65.3723 229.318 49.6676 235.006 49.0493C246.63 47.8127 252.442 86.7653 252.442 86.7653C252.442 86.7653 252.195 104.325 240.818 106.674C233.77 108.035 229.565 102.223 229.565 102.223Z" fill="#D3766A"/>
<path d="M247.622 78.48C247.127 84.292 254.176 81.5715 254.176 81.5715C254.176 81.5715 244.778 87.8781 246.633 94.061C248.364 99.9967 256.896 96.5342 257.515 96.2869C257.02 96.6579 248.611 102.717 250.961 108.776C253.434 115.083 261.472 110.013 261.966 109.642C261.595 110.137 256.896 116.32 259.741 120.524C264.687 127.696 277.177 111.992 284.225 111.497C284.225 111.497 286.451 123.368 286.575 123.616C286.575 123.616 298.693 108.9 297.58 99.502C296.962 94.5557 292.139 94.1847 292.139 94.1847C292.139 94.1847 296.591 89.8566 294.86 85.0339C293.994 82.5608 289.171 81.8188 289.171 81.8188C289.171 81.8188 292.634 78.2327 290.779 74.0283C289.295 70.6895 284.843 70.4422 284.843 70.4422C284.843 70.4422 286.575 65.4958 283.978 62.528C278.66 56.716 248.859 65.9904 247.622 78.48Z" fill="#D3766A"/>
<path d="M284.101 70.4423C284.225 70.4423 284.225 70.3186 284.101 70.3186C273.59 71.0606 262.09 75.0177 253.928 81.8189C253.681 82.0662 253.928 82.5609 254.299 82.4372C263.944 76.8725 273.095 72.9155 284.101 70.4423Z" fill="#263238"/>
<path d="M289.294 81.8191C289.418 81.8191 289.418 81.5718 289.294 81.5718C278.412 82.3137 265.675 87.1364 257.143 96.1635C256.895 96.4109 256.895 97.0292 257.266 96.6582C263.325 91.2172 279.401 84.045 289.294 81.8191Z" fill="#263238"/>
<path d="M261.595 110.508C270.127 102.223 280.391 97.524 291.644 94.3089C291.768 94.3089 291.768 94.0615 291.644 94.0615C285.708 94.1852 278.66 97.0293 273.466 99.7498C268.396 102.347 264.439 105.685 261.347 110.261C261.224 110.385 261.471 110.632 261.595 110.508Z" fill="#263238"/>
<path d="M254.052 81.5717C253.681 81.819 254.423 82.0663 254.175 82.3136C252.815 83.4265 245.519 91.2171 247.374 94.5559C248.858 97.1527 253.433 97.029 255.164 96.2871L259.493 94.4322L256.03 97.771C254.546 99.2549 253.186 100.986 252.197 102.841C251.207 104.696 250.836 106.798 251.455 108.529C252.197 110.384 253.681 111.497 255.659 111.25C257.514 111.126 259.616 110.137 261.347 109.024L266.046 105.932L262.584 110.384C261.718 111.621 260.853 112.981 260.235 114.465C259.616 115.949 259.369 117.433 259.616 118.793C259.864 120.153 260.976 121.266 262.213 121.514C263.573 121.761 265.181 121.39 266.665 120.772C269.633 119.535 272.353 117.68 275.197 115.949C276.558 115.083 278.041 114.218 279.525 113.352C281.009 112.61 282.493 111.744 284.224 111.621C282.617 111.868 281.133 112.857 279.773 113.723C278.412 114.589 277.052 115.578 275.692 116.567C272.971 118.546 270.251 120.524 267.159 121.884C265.552 122.503 263.944 123.245 261.966 122.874C259.987 122.503 258.38 120.772 258.009 118.917C257.514 117.062 258.009 115.207 258.627 113.476C259.245 111.868 260.111 110.384 261.224 108.9L262.584 110.261C260.605 111.621 258.503 112.734 255.906 112.857C254.67 112.981 253.186 112.61 252.073 111.868C250.96 111.126 250.218 110.013 249.723 108.777C248.734 106.303 249.476 103.583 250.589 101.604C251.702 99.5022 253.186 97.771 254.917 96.1634L255.783 97.5237C253.557 98.3893 248.363 99.1312 245.519 95.2978C242.799 89.9805 252.32 82.6846 254.052 81.5717Z" fill="#263238"/>
<path d="M254.299 81.5712C253.062 81.6948 251.826 81.8185 250.713 81.5712C249.6 81.4475 248.858 80.7056 248.487 79.9636C248.116 79.098 248.363 77.9851 248.611 76.8721C248.982 75.7592 249.353 74.5226 249.724 73.4097C248.734 74.2753 247.992 75.2646 247.374 76.5011C246.88 77.7377 246.385 79.098 246.88 80.7056C247.251 81.4475 247.745 82.0658 248.363 82.4368C248.982 82.8078 249.847 83.0551 250.466 82.9314C252.073 82.9314 253.31 82.3131 254.299 81.5712Z" fill="#263238"/>
<path d="M225.486 103.089L255.288 154.778C255.288 154.778 201.496 187.3 176.765 178.644C152.033 169.988 109.741 132.891 100.714 124.358C81.0525 105.562 91.5635 92.083 111.102 99.9972C130.64 107.911 179.114 127.079 182.082 127.326C184.926 127.573 225.486 103.089 225.486 103.089Z" fill="#455A64"/>
<path d="M217.2 118.052C218.437 118.918 220.044 118.67 220.91 117.434C221.776 116.197 221.528 114.59 220.292 113.724C219.055 112.859 217.448 113.106 216.582 114.342C215.716 115.579 215.964 117.31 217.2 118.052Z" fill="#263238"/>
<path d="M205.33 124.977C206.566 125.843 208.174 125.595 209.039 124.359C209.905 123.122 209.658 121.515 208.421 120.649C207.185 119.783 205.577 120.031 204.711 121.267C203.846 122.38 204.093 124.112 205.33 124.977Z" fill="#263238"/>
<path d="M149.931 164.053C128.785 149.708 106.774 130.294 100.715 124.358C83.6497 108.035 89.338 95.6692 103.93 98.0188L149.931 164.053Z" fill="#263238"/>
<path d="M15.8856 258.899H151.911C152.405 253.953 124.458 115.331 111.103 98.0186C108.259 94.3089 98.8609 93.3196 90.823 94.3089C88.5972 94.5562 86.4949 95.0508 84.6401 95.5455C84.6401 95.5455 84.5164 95.5455 84.3928 95.5455C82.5379 96.1637 80.9303 96.9057 79.8174 97.7713C57.8061 115.578 14.7727 257.662 15.8856 258.899Z" fill="#455A64"/>
<path d="M98.7384 129.675L104.427 118.422L111.97 126.584L110.115 134.745L102.696 135.611L98.7384 129.675Z" fill="#263238"/>
<path d="M102.696 135.611L99.2331 218.462L114.69 245.915L122.852 215L110.115 134.745L102.696 135.611Z" fill="#263238"/>
<path d="M106.899 117.432C99.8506 119.906 86.2481 110.384 80.4361 101.975C80.0651 101.357 80.1888 94.8028 80.0651 86.8886C79.9415 82.0659 79.6941 76.6249 79.1995 71.8022C79.0758 70.8129 82.6619 72.2969 82.6619 72.2969L89.2159 73.1625L110.733 75.883C110.733 75.883 108.878 86.5176 109.867 95.0501C109.991 95.7921 110.114 96.4104 110.362 97.0287C110.362 97.1523 110.362 97.276 110.485 97.3996C111.475 100.986 113.7 114.959 106.899 117.432Z" fill="#D3766A"/>
<path d="M110.363 96.9053C110.363 97.0289 110.363 97.1526 110.486 97.2762C109.497 97.5236 108.508 97.6472 107.395 97.7709C86.62 99.6257 81.0553 73.6574 81.0553 73.6574L89.2168 73.0391L110.733 75.7596C110.733 75.7596 108.879 86.3942 109.868 94.9267C109.992 95.545 110.115 96.287 110.363 96.9053Z" fill="#263238"/>
<path d="M72.0281 33.9631C69.1839 45.0924 76.2325 76.5018 84.394 83.1794C96.1416 92.9484 114.69 93.0721 122.728 79.2223C130.642 65.7434 120.626 24.936 111.599 18.8767C98.4911 9.97322 76.3561 17.5164 72.0281 33.9631Z" fill="#D3766A"/>
<path d="M98.9837 52.7594C98.9837 52.6358 98.86 52.8831 98.86 53.0067C99.3547 55.1089 99.602 57.5821 97.8708 58.695V58.8187C100.22 57.9531 99.8493 54.6143 98.9837 52.7594Z" fill="#263238"/>
<path d="M96.6352 50.9045C93.1728 51.3992 94.4094 58.3241 97.6245 57.8294C100.84 57.4584 99.603 50.5335 96.6352 50.9045Z" fill="#263238"/>
<path d="M111.969 50.0388C111.969 49.9151 112.092 50.1624 112.216 50.1624C112.587 52.2646 113.205 54.7378 115.308 55.1088C115.431 55.1088 115.431 55.2325 115.308 55.2325C112.834 55.2325 111.845 52.141 111.969 50.0388Z" fill="#263238"/>
<path d="M113.453 47.4422C116.792 46.5765 118.399 53.3778 115.184 54.2434C112.093 54.9854 110.609 48.1841 113.453 47.4422Z" fill="#263238"/>
<path d="M93.2966 48.3072C94.1622 47.9362 94.9041 47.3179 95.7697 46.8233C96.759 46.205 97.501 45.9577 97.9956 44.8448C98.2429 44.3501 97.9956 43.4845 97.501 43.1135C96.2644 42.3716 94.9041 42.7426 93.7912 43.3609C92.5546 43.9792 91.689 44.8448 91.1944 46.205C90.6997 47.5653 92.1836 48.8019 93.2966 48.3072Z" fill="#263238"/>
<path d="M115.432 43.4846C114.443 43.4846 113.577 43.3609 112.588 43.2372C111.475 43.1136 110.61 43.2372 109.744 42.4953C109.249 42.1243 109.126 41.2587 109.497 40.7641C110.239 39.6511 111.599 39.4038 112.959 39.4038C114.443 39.5275 115.556 39.8985 116.545 40.8877C117.658 41.7533 116.793 43.4846 115.432 43.4846Z" fill="#263238"/>
<path d="M101.212 72.545C101.83 72.916 102.448 73.5343 103.19 73.4107C103.932 73.287 104.798 72.7924 105.416 72.4214C105.54 72.4214 105.54 72.4214 105.54 72.545C105.169 73.4107 104.056 74.1526 103.066 74.1526C102.077 74.1526 101.459 73.4107 101.088 72.545C100.964 72.545 101.088 72.4214 101.212 72.545Z" fill="#263238"/>
<path d="M102.324 65.7433C103.808 67.3509 105.786 68.0928 107.765 68.0928C108.63 68.0928 109.496 67.9692 110.362 67.7219C110.485 67.7219 110.733 67.5982 110.856 67.5982C110.98 67.5982 111.103 67.4746 111.351 67.4746C111.598 67.3509 111.722 67.1036 111.722 66.9799C111.722 66.8563 111.722 66.8563 111.722 66.7326V66.4853C111.474 64.8777 110.856 62.4045 110.856 62.4045C111.474 62.6519 114.813 63.3938 114.566 62.5282C112.835 55.4796 110.98 47.6891 107.765 41.0115C107.641 40.7642 107.27 40.8879 107.394 41.1352C108.754 47.9364 111.351 54.4904 112.835 61.2916C111.845 61.0443 110.114 60.6733 109.249 60.9206C109.001 61.0443 110.485 65.6197 110.609 66.4853C110.609 66.4853 110.609 66.4853 110.609 66.6089C107.888 67.4745 105.662 66.9799 102.695 65.6197C102.324 65.3724 102.2 65.6197 102.324 65.7433Z" fill="#263238"/>
<path d="M109.247 67.352C109.247 67.352 108.011 69.5778 106.156 70.5671C105.414 70.9381 104.672 71.1854 103.806 71.0617C102.075 70.8144 101.828 69.3305 101.951 67.8466C102.075 66.7337 102.446 65.6207 102.446 65.6207C102.446 65.6207 105.166 67.5993 109.247 67.352Z" fill="#263238"/>
<path d="M106.156 70.4436C105.414 70.8146 104.672 71.0619 103.806 70.9383C102.075 70.691 101.828 69.2071 101.951 67.7231C103.806 67.7231 105.785 68.7124 106.156 70.4436Z" fill="#FF99BA"/>
<path d="M74.9958 57.8288C82.2917 56.4686 81.1788 42.9898 81.1788 42.9898C81.1788 42.9898 93.2973 38.538 93.2973 28.8926C93.2973 28.8926 106.529 34.21 115.185 29.0163C123.841 23.8226 120.379 12.5696 118.895 10.4674C115.432 5.7684 109.002 13.9299 109.002 13.9299C109.002 13.9299 95.8942 9.1072 82.91 12.9406C72.2753 16.0321 68.8129 27.2851 68.8129 27.2851C68.8129 27.2851 63.2482 29.6346 62.1353 34.0863C60.8987 38.4144 70.2968 58.6945 74.9958 57.8288Z" fill="#263238"/>
<path d="M78.2105 43.6075C88.1032 42.9892 93.2968 35.446 92.9259 25.9243C92.9259 25.8006 93.0495 25.8006 93.0495 25.9243C94.4098 34.5804 88.2268 45.7097 78.2105 44.1022C77.9631 44.1022 77.9631 43.6075 78.2105 43.6075Z" fill="#263238"/>
<path d="M68.9355 27.0371C69.0592 27.0371 69.1828 27.1608 69.0592 27.1608C66.586 28.892 63.7418 30.4996 62.2579 33.2201C60.5267 36.6825 61.7633 40.3923 63.2472 43.6074C65.5967 48.5538 69.5538 54.8604 74.8712 57.0863C75.1185 57.2099 74.9948 57.7046 74.6238 57.5809C68.3172 55.355 63.3709 47.1935 61.516 41.1342C59.2901 34.4567 62.8763 29.7576 68.9355 27.0371Z" fill="#263238"/>
<path d="M104.302 29.2635C109.001 31.242 115.432 30.1291 119.018 26.0484C123.346 21.2257 121.12 15.0427 117.905 10.0963C117.781 9.84902 118.028 9.47804 118.276 9.72536C122.109 13.8061 123.717 20.8547 120.254 25.6774C116.792 30.6237 109.249 31.984 104.055 29.8818C103.56 29.8818 103.808 29.1398 104.302 29.2635Z" fill="#263238"/>
<path d="M79.9415 59.4367C79.9415 59.4367 72.151 49.6677 67.6993 52.5118C63.2476 55.356 69.5542 69.8241 75.1189 71.5553C80.6835 73.2865 82.4147 68.0929 82.4147 68.0929L79.9415 59.4367Z" fill="#D3766A"/>
<path d="M69.5548 56.5927C69.4312 56.5927 69.4312 56.7163 69.5548 56.7163C73.5119 58.0766 75.7378 61.4154 77.3453 65.0015C76.1087 63.6412 74.5012 63.0229 72.7699 64.5068C72.6463 64.6305 72.7699 64.7541 72.8936 64.7541C74.3775 64.3832 75.6141 64.5068 76.727 65.7434C77.5926 66.609 78.0873 67.722 78.7056 68.7112C78.9529 69.0822 79.5712 68.8349 79.3239 68.4639C79.3239 68.4639 79.3239 68.4639 79.3239 68.3403C79.0766 63.3939 74.8722 56.84 69.5548 56.5927Z" fill="#263238"/>
<path d="M110.363 96.5348L103.685 115.084L80.19 92.9487L74.007 100.616C74.007 100.616 97.5022 136.353 97.6259 134.745L104.551 118.793L115.804 129.304L113.825 101.976L110.363 96.5348Z" fill="#455A64"/>
<path d="M115.557 115.579C115.062 111.127 114.691 106.552 114.073 101.976C114.073 101.853 113.825 101.729 113.702 101.976C112.96 106.428 114.815 123.617 114.938 127.821C114.444 127.326 104.551 118.547 104.427 118.794C102.943 121.391 97.8733 133.015 97.5023 134.004C93.7926 128.316 79.5718 107.665 75.2437 102.347C75.1201 102.224 74.8728 102.347 74.9964 102.471C78.3352 108.53 97.1314 136.23 97.3787 136.23C97.626 136.353 103.933 122.009 104.551 119.289C106.282 121.267 116.299 131.16 116.299 130.542C116.546 125.966 116.051 120.154 115.557 115.579Z" fill="#263238"/>
<path d="M68.4417 108.406C30.602 142.783 3.14969 202.016 4.0153 217.968C5.12823 239.114 43.3389 275.098 68.1944 285.609C74.501 288.206 98.8618 236.764 89.5873 234.044C79.8183 231.2 57.436 210.796 56.3231 209.93C53.9736 207.952 72.1514 162.816 79.6946 135.487C88.3508 104.696 84.3937 93.938 68.4417 108.406Z" fill="#D3766A"/>
<path d="M54.2213 277.819C78.3348 295.255 111.104 298.965 116.793 298.47C121.615 297.975 124.089 297.728 124.089 297.728C132.745 296.986 135.836 292.905 135.836 292.905C135.836 292.905 146.1 295.008 148.449 289.072C151.046 282.394 136.207 280.663 128.54 274.728C111.104 261.125 90.0824 236.764 85.507 232.312L54.2213 277.819Z" fill="#D3766A"/>
<path d="M100.223 273.12C105.416 277.077 110.486 281.034 116.175 284.249C122.481 287.712 129.035 290.061 135.713 292.535C135.96 292.658 135.836 292.906 135.589 292.906C122.729 290.309 109.126 282.766 99.728 273.615C99.6043 273.367 99.9753 272.996 100.223 273.12Z" fill="#263238"/>
<path d="M90.4535 282.518C95.7708 286.104 105.045 292.163 124.212 297.357C124.336 297.357 124.212 297.481 124.212 297.481C111.352 295.75 100.222 291.051 90.2061 283.013C89.7115 282.765 90.0825 282.271 90.4535 282.518Z" fill="#263238"/>
<path d="M108.508 256.797C106.9 254.077 108.384 253.335 113.454 255.313C118.648 257.292 137.197 269.658 140.907 262.856C144.74 255.931 118.153 238.99 109.374 236.27C100.594 233.549 85.3837 232.313 85.3837 232.313C89.9591 236.641 99.8518 248.141 108.508 256.797Z" fill="#D3766A"/>
<path d="M55.0868 281.653L85.2596 230.952C85.2596 230.952 57.0653 211.167 56.818 209.188C56.6943 207.21 76.7271 152.553 82.6627 125.719C88.722 98.8846 85.7542 86.024 59.2912 115.95C32.8281 145.875 -1.05444 196.328 0.676787 217.968C2.40801 239.609 55.0868 281.653 55.0868 281.653Z" fill="#455A64"/>
<path d="M85.5069 230.829C80.8079 226.995 76.1088 223.162 71.2861 219.329C68.9366 217.474 66.4634 215.619 63.9903 213.764C62.7537 212.898 61.6407 212.033 60.4041 211.167C59.5385 210.549 57.8073 208.941 57.8073 208.694C57.8073 208.57 60.1568 199.79 61.5171 195.71C63.001 191.382 64.3612 187.054 65.8451 182.726C68.071 175.801 70.2969 168.876 72.5227 161.827C73.512 160.591 74.2539 159.107 74.9959 157.623C75.9852 155.644 76.8508 153.542 77.7164 151.44C77.7164 151.44 77.7164 151.316 77.5927 151.44C76.4798 153.418 75.3669 155.273 74.3776 157.252C74.0066 157.87 73.7593 158.488 73.3883 159.23C73.6356 158.488 73.883 157.623 74.1303 156.881C75.7378 152.058 77.2217 147.112 78.4583 142.165C78.4583 142.042 78.3347 141.918 78.211 142.042C74.7486 150.451 71.7808 159.107 68.9366 167.639C66.0925 176.295 63.3719 185.075 60.7751 193.855C59.4149 198.678 56.1997 208.941 56.447 209.436C56.6944 210.054 57.6836 210.92 58.1783 211.291C58.7966 211.785 59.5385 212.404 60.1568 212.898C62.8773 215.001 65.5978 217.103 68.3183 219.081C73.883 223.162 79.4476 227.119 85.0123 231.076C85.5069 231.076 85.6306 230.953 85.5069 230.829Z" fill="#263238"/>
<path d="M48.0374 265.33C47.5428 266.814 48.4084 268.298 49.7687 268.792C51.2526 269.287 52.7365 268.421 53.2311 267.061C53.7257 265.577 52.8601 264.093 51.4999 263.599C50.1396 263.104 48.532 263.846 48.0374 265.33Z" fill="#263238"/>
<path d="M38.0215 256.427C37.5269 257.911 38.3925 259.395 39.7527 259.889C41.2366 260.384 42.7205 259.518 43.2152 258.158C43.7098 256.674 42.8442 255.19 41.484 254.695C40.1237 254.201 38.5162 254.943 38.0215 256.427Z" fill="#263238"/>
<path d="M20.2152 249.13C23.6776 252.098 27.0164 255.313 30.2315 258.528C31.8391 260.136 33.4467 261.743 35.0542 263.475C36.6618 265.082 38.1457 266.813 39.7533 268.421C36.0435 265.701 32.7047 262.485 29.4896 259.27C26.2744 256.055 23.0593 252.716 20.2152 249.13Z" fill="#263238"/>
<path d="M178.254 181.977L159.355 196.141L211.488 265.704L230.388 251.54L178.254 181.977Z" fill="#37474F"/>
<path d="M273.962 312.444L257.763 324.563C254.3 327.16 249.477 326.418 246.881 322.955L198.283 258.158C195.686 254.696 196.428 249.873 199.89 247.276L216.089 235.158C219.552 232.561 224.375 233.303 226.971 236.765L275.569 301.562C278.166 305.025 277.424 309.848 273.962 312.444Z" fill="#263238"/>
<g opacity="0.2">
<path d="M184.68 50.9057C216.337 93.0734 207.804 153.048 165.513 184.581C123.345 216.238 63.3707 207.582 31.8376 165.414C0.180915 123.246 8.71339 63.3952 51.0048 31.7385C93.1725 0.0817852 153.023 8.61426 184.68 50.9057Z" fill="white"/>
<path d="M197.665 74.6479C212.257 113.353 200.262 158.612 165.513 184.704C158.341 190.145 150.674 194.35 142.637 197.441L197.665 74.6479Z" fill="#EBEBEB"/>
<path d="M122.852 13.8076L47.4199 181.86C41.7316 177.161 36.4143 171.597 31.7152 165.414C26.3979 158.241 22.1935 150.698 19.102 142.66L74.7485 18.5067C90.4532 12.8184 106.9 11.3344 122.852 13.8076Z" fill="#EBEBEB"/>
<path d="M178.621 43.6102L106.775 203.625C100.469 203.501 94.2859 202.759 88.103 201.523L164.648 30.9969C169.594 34.7067 174.293 38.9111 178.621 43.6102Z" fill="#EBEBEB"/>
<path d="M135.589 16.6519L58.0547 189.527C57.0655 188.909 56.0762 188.291 55.0869 187.672L132.25 15.7863C133.363 16.0336 134.476 16.2809 135.589 16.6519Z" fill="#EBEBEB"/>
<path d="M47.1717 34.7065L12.7945 111.375C12.6708 108.531 12.6708 105.687 12.9181 102.843L40.8651 40.3949C42.8436 38.4163 44.9458 36.5614 47.1717 34.7065Z" fill="#EBEBEB"/>
</g>
<path d="M108.259 215.99C48.7794 215.99 0.428711 167.64 0.428711 108.16C0.428711 48.6798 48.7794 0.329102 108.259 0.329102C167.739 0.329102 216.09 48.6798 216.09 108.16C216.09 167.64 167.739 215.99 108.259 215.99ZM108.259 12.695C55.5806 12.695 12.7946 55.481 12.7946 108.16C12.7946 160.839 55.5806 203.625 108.259 203.625C160.938 203.625 203.724 160.839 203.724 108.16C203.724 55.481 160.938 12.695 108.259 12.695Z" fill="#263238"/>
</svg>
