<svg width="36" height="53" viewBox="0 0 36 53" fill="none" xmlns="http://www.w3.org/2000/svg">
<path d="M27.6292 49.7115C26.1453 50.7007 24.4141 51.4427 22.5592 51.8137C17.7365 53.0503 12.9138 52.061 8.95672 49.7115C5.12329 47.3619 2.15546 43.5285 1.04253 38.8295C-1.30699 29.3077 4.50498 19.6623 14.0267 17.4364C23.5485 15.0869 33.1939 20.8989 35.4198 30.4206C37.3983 38.0875 33.9358 45.7544 27.6292 49.7115Z" fill="#FFC3A6"/>
<path d="M23.6707 32.5229C23.6707 35.4907 21.1975 37.9639 18.2297 37.9639C15.2619 37.9639 12.7887 35.4907 12.7887 32.5229C12.7887 29.5551 15.2619 27.0819 18.2297 27.0819C21.1975 27.2056 23.6707 29.5551 23.6707 32.5229Z" fill="white"/>
<path d="M27.6283 47.4864V49.7123C26.1444 50.7016 24.4132 51.4435 22.5583 51.8145C17.7356 53.0511 12.9129 52.0618 8.95583 49.7123V47.4864C8.95583 42.2928 13.1602 38.212 18.2303 38.212C23.4239 38.0884 27.6283 42.2928 27.6283 47.4864Z" fill="white"/>
<path d="M26.1446 7.79101C25.7736 3.83392 23.0531 0.000488281 18.3541 0.000488281C13.6551 0.000488281 10.9346 3.83392 10.5636 7.79101C9.9453 13.8503 14.026 19.2913 18.3541 24.2377C22.5585 19.2913 26.6393 13.8503 26.1446 7.79101ZM18.2305 12.1191C15.8809 12.1191 13.9024 10.2642 13.9024 7.79101C13.9024 5.31783 15.7573 3.46294 18.2305 3.46294C20.58 3.46294 22.5585 5.31783 22.5585 7.79101C22.5585 10.2642 20.58 12.1191 18.2305 12.1191Z" fill="#FE9563"/>
</svg>
