<svg width="241" height="307" viewBox="0 0 241 307" fill="none" xmlns="http://www.w3.org/2000/svg">
<path d="M204.048 1.00684H1V278.25H204.048V1.00684Z" fill="#455A64" stroke="#EBEBEB" stroke-width="1.23659" stroke-miterlimit="10"/>
<path d="M204.048 1.00684H1V20.4213H204.048V1.00684Z" fill="#FE9563" stroke="#EBEBEB" stroke-width="1.23659" stroke-miterlimit="10"/>
<path d="M19.1793 10.8994C19.1793 13.6199 16.9534 15.8457 14.2329 15.8457C11.5124 15.8457 9.28656 13.6199 9.28656 10.8994C9.28656 8.17887 11.5124 5.953 14.2329 5.953C17.0771 5.953 19.1793 8.17887 19.1793 10.8994Z" fill="#263238"/>
<path d="M39.2124 10.8994C39.2124 13.6199 36.9865 15.8457 34.266 15.8457C31.5455 15.8457 29.3196 13.6199 29.3196 10.8994C29.3196 8.17887 31.5455 5.953 34.266 5.953C36.9865 5.953 39.2124 8.17887 39.2124 10.8994Z" fill="#EBEBEB"/>
<path d="M59.1218 10.8994C59.1218 13.6199 56.8959 15.8457 54.1754 15.8457C51.4549 15.8457 49.229 13.6199 49.229 10.8994C49.229 8.17887 51.4549 5.953 54.1754 5.953C56.8959 5.953 59.1218 8.17887 59.1218 10.8994Z" fill="#455A64"/>
<path d="M1 20.4214H204.048" stroke="#EBEBEB" stroke-width="1.23659" stroke-miterlimit="10"/>
<path d="M114.766 219.389H15.0973V228.663H114.766V219.389Z" fill="#C7C7C7"/>
<path d="M189.951 237.444H15.0972V243.009H189.951V237.444Z" fill="#EBEBEB"/>
<path d="M189.951 248.078H15.0972V253.643H189.951V248.078Z" fill="#EBEBEB"/>
<path d="M189.951 258.836H15.0972V264.401H189.951V258.836Z" fill="#EBEBEB"/>
<path d="M189.952 32.1692H15.098V207.023H189.952V32.1692Z" fill="#DBDBDB"/>
<path d="M91.0227 92.5144C112.194 92.5144 129.357 74.6871 129.357 52.6961C129.357 30.7052 112.194 12.8779 91.0227 12.8779C69.8512 12.8779 52.6884 30.7052 52.6884 52.6961C52.6884 74.6871 69.8512 92.5144 91.0227 92.5144Z" fill="#263238"/>
<path d="M72.7216 81.2609C72.7216 84.2287 70.372 86.5783 67.4042 86.5783C64.4364 86.5783 62.0869 84.2287 62.0869 81.2609C62.0869 78.2931 64.4364 75.9436 67.4042 75.9436C70.372 75.9436 72.7216 78.4168 72.7216 81.2609Z" fill="#263238"/>
<path d="M128.615 73.3464C128.615 76.3142 126.265 78.6637 123.298 78.6637C120.33 78.6637 117.98 76.3142 117.98 73.3464C117.98 70.3786 120.33 68.0291 123.298 68.0291C126.265 68.0291 128.615 70.5022 128.615 73.3464Z" fill="#263238"/>
<path d="M133.932 48.7382C133.932 51.706 131.583 54.0556 128.615 54.0556C125.647 54.0556 123.297 51.706 123.297 48.7382C123.297 45.7704 125.647 43.4209 128.615 43.4209C131.583 43.5446 133.932 45.8941 133.932 48.7382Z" fill="#263238"/>
<path d="M60.6025 44.0395C60.6025 47.0073 58.253 49.3568 55.2852 49.3568C52.3174 49.3568 49.9679 47.0073 49.9679 44.0395C49.9679 41.0717 52.3174 38.7222 55.2852 38.7222C58.253 38.7222 60.6025 41.0717 60.6025 44.0395Z" fill="#263238"/>
<path d="M67.4043 29.8191C67.4043 32.7869 65.0548 35.1364 62.0869 35.1364C59.1191 35.1364 56.7696 32.7869 56.7696 29.8191C56.7696 26.8512 59.2428 24.5017 62.0869 24.5017C65.0548 24.5017 67.4043 26.8512 67.4043 29.8191Z" fill="#263238"/>
<path d="M73.8339 23.7595C73.8339 26.7273 71.4844 29.0768 68.5166 29.0768C65.5487 29.0768 63.1992 26.7273 63.1992 23.7595C63.1992 20.7917 65.5487 18.4421 68.5166 18.4421C71.4844 18.4421 73.8339 20.9153 73.8339 23.7595Z" fill="#263238"/>
<path d="M80.1408 17.2052C80.1408 20.173 77.7913 22.5225 74.8235 22.5225C71.8556 22.5225 69.5061 20.173 69.5061 17.2052C69.5061 14.2373 71.8556 11.8878 74.8235 11.8878C77.7913 11.8878 80.1408 14.361 80.1408 17.2052Z" fill="#263238"/>
<path d="M88.5497 16.3403C88.5497 19.3081 86.2002 21.6576 83.2324 21.6576C80.2646 21.6576 77.915 19.3081 77.915 16.3403C77.915 13.3725 80.2646 11.0229 83.2324 11.0229C86.2002 11.0229 88.5497 13.3725 88.5497 16.3403Z" fill="#263238"/>
<path d="M112.91 16.3403C112.91 19.3081 110.561 21.6576 107.593 21.6576C104.625 21.6576 102.276 19.3081 102.276 16.3403C102.276 13.3725 104.625 11.0229 107.593 11.0229C110.561 11.0229 112.91 13.3725 112.91 16.3403Z" fill="#263238"/>
<path d="M124.657 26.6037C124.657 29.5715 122.308 31.9211 119.34 31.9211C116.372 31.9211 114.023 29.5715 114.023 26.6037C114.023 23.6359 116.372 21.2864 119.34 21.2864C122.308 21.41 124.657 23.7596 124.657 26.6037Z" fill="#263238"/>
<path d="M58.0057 72.481C60.9424 72.481 63.323 70.1003 63.323 67.1637C63.323 64.227 60.9424 61.8463 58.0057 61.8463C55.069 61.8463 52.6884 64.227 52.6884 67.1637C52.6884 70.1003 55.069 72.481 58.0057 72.481Z" fill="#263238"/>
<path d="M86.5704 88.3097C86.5704 91.2775 84.2209 93.627 81.2531 93.627C78.2853 93.627 75.9358 91.2775 75.9358 88.3097C75.9358 85.3418 78.2853 82.9923 81.2531 82.9923C84.2209 83.116 86.5704 85.4655 86.5704 88.3097Z" fill="#263238"/>
<path d="M94.1134 88.4328C94.1134 91.4006 91.7639 93.7502 88.7961 93.7502C85.8283 93.7502 83.4787 91.4006 83.4787 88.4328C83.4787 85.465 85.8283 83.1155 88.7961 83.1155C91.7639 83.1155 94.1134 85.465 94.1134 88.4328Z" fill="#263238"/>
<path d="M60.6025 59.3732C60.6025 62.3411 58.253 64.6906 55.2852 64.6906C52.3174 64.6906 49.9679 62.3411 49.9679 59.3732C49.9679 56.4054 52.3174 54.0559 55.2852 54.0559C58.253 54.1796 60.6025 56.5291 60.6025 59.3732Z" fill="#263238"/>
<path d="M61.5923 79.777C64.2558 79.777 66.415 77.6178 66.415 74.9543C66.415 72.2908 64.2558 70.1316 61.5923 70.1316C58.9288 70.1316 56.7696 72.2908 56.7696 74.9543C56.7696 77.6178 58.9288 79.777 61.5923 79.777Z" fill="#263238"/>
<path d="M96.2157 13.7431C96.2157 16.34 94.1135 18.5658 91.393 18.5658C88.7962 18.5658 86.5703 16.4636 86.5703 13.7431C86.5703 11.1463 88.6725 8.92041 91.393 8.92041C94.1135 8.92041 96.2157 11.1463 96.2157 13.7431Z" fill="#263238"/>
<path d="M60.1091 51.7069C60.1091 54.3037 58.0069 56.5296 55.2864 56.5296C52.6895 56.5296 50.4637 54.4274 50.4637 51.7069C50.4637 49.11 52.5659 46.8842 55.2864 46.8842C58.0069 47.0078 60.1091 49.11 60.1091 51.7069Z" fill="#263238"/>
<path d="M58.0059 41.5668C60.6694 41.5668 62.8286 39.4076 62.8286 36.7441C62.8286 34.0806 60.6694 31.9214 58.0059 31.9214C55.3424 31.9214 53.1832 34.0806 53.1832 36.7441C53.1832 39.4076 55.3424 41.5668 58.0059 41.5668Z" fill="#263238"/>
<path d="M99.1844 19.1839C101.848 19.1839 104.007 17.0247 104.007 14.3612C104.007 11.6977 101.848 9.53845 99.1844 9.53845C96.5209 9.53845 94.3617 11.6977 94.3617 14.3612C94.3617 17.0247 96.5209 19.1839 99.1844 19.1839Z" fill="#263238"/>
<path d="M79.1515 85.465C79.1515 88.0619 77.0493 90.2877 74.3288 90.2877C71.732 90.2877 69.5061 88.1855 69.5061 85.465C69.5061 82.8682 71.6083 80.6423 74.3288 80.6423C77.0493 80.6423 79.1515 82.7445 79.1515 85.465Z" fill="#263238"/>
<path d="M101.038 90.1639C101.038 92.7607 98.936 94.9866 96.2155 94.9866C93.6187 94.9866 91.3928 92.8844 91.3928 90.1639C91.3928 87.5671 93.495 85.3412 96.2155 85.3412C98.936 85.4648 101.038 87.5671 101.038 90.1639Z" fill="#263238"/>
<path d="M104.873 93.2558C107.536 93.2558 109.695 91.0966 109.695 88.433C109.695 85.7695 107.536 83.6104 104.873 83.6104C102.209 83.6104 100.05 85.7695 100.05 88.433C100.05 91.0966 102.209 93.2558 104.873 93.2558Z" fill="#263238"/>
<path d="M111.551 88.4332C114.214 88.4332 116.374 86.2741 116.374 83.6106C116.374 80.9471 114.214 78.7878 111.551 78.7878C108.887 78.7878 106.728 80.9471 106.728 83.6106C106.728 86.2741 108.887 88.4332 111.551 88.4332Z" fill="#263238"/>
<path d="M124.164 80.271C124.164 82.8678 122.062 85.0936 119.341 85.0936C116.744 85.0936 114.518 82.9915 114.518 80.271C114.518 77.6741 116.621 75.4482 119.341 75.4482C122.062 75.5719 124.164 77.6741 124.164 80.271Z" fill="#263238"/>
<path d="M132.695 66.669C132.695 69.2659 130.593 71.4917 127.873 71.4917C125.276 71.4917 123.05 69.3895 123.05 66.669C123.05 64.0722 125.152 61.8463 127.873 61.8463C130.47 61.8463 132.695 63.9485 132.695 66.669Z" fill="#263238"/>
<path d="M132.695 57.7658C132.695 60.3627 130.593 62.5885 127.873 62.5885C125.276 62.5885 123.05 60.4863 123.05 57.7658C123.05 55.169 125.152 52.9431 127.873 52.9431C130.47 52.9431 132.695 55.169 132.695 57.7658Z" fill="#263238"/>
<path d="M119.34 19.6784C119.34 22.2753 117.238 24.5011 114.518 24.5011C111.921 24.5011 109.695 22.3989 109.695 19.6784C109.695 16.9579 111.797 14.8557 114.518 14.8557C117.238 14.9794 119.34 17.0816 119.34 19.6784Z" fill="#263238"/>
<path d="M125.647 37.6093C128.311 37.6093 130.47 35.4501 130.47 32.7866C130.47 30.1231 128.311 27.9639 125.647 27.9639C122.984 27.9639 120.824 30.1231 120.824 32.7866C120.824 35.4501 122.984 37.6093 125.647 37.6093Z" fill="#263238"/>
<path d="M126.76 45.1522C129.424 45.1522 131.583 42.993 131.583 40.3295C131.583 37.666 129.424 35.5068 126.76 35.5068C124.097 35.5068 121.938 37.666 121.938 40.3295C121.938 42.993 124.097 45.1522 126.76 45.1522Z" fill="#263238"/>
<path d="M88.6717 111.68C96.3386 121.82 138.012 154.219 174.12 154.837C186.362 155.085 222.223 103.89 229.148 84.2281C234.095 70.1309 204.046 61.8458 195.389 63.7006C184.631 65.9265 165.711 109.702 158.168 110.196C145.926 110.938 122.678 103.148 97.2042 98.6962C83.9727 96.3466 82.7361 103.89 88.6717 111.68Z" fill="#774442"/>
<path d="M228.16 86.3299C230.262 82.1255 238.176 61.8454 239.165 55.7861C240.155 49.6031 241.639 31.7962 236.94 30.6833C232.364 29.4467 231.499 34.6404 231.499 34.6404C231.499 34.6404 230.88 26.9735 226.181 26.2316C221.482 25.4896 220.369 33.5275 220.369 33.5275C220.369 33.5275 219.256 25.7369 214.434 25.2423C209.611 24.7477 209.982 33.1565 209.982 33.1565C209.982 33.1565 209.24 25.9843 205.159 27.2209C200.213 28.8284 203.057 41.8126 201.449 48.4902C201.078 49.9741 192.051 78.663 192.051 78.663L228.16 86.3299Z" fill="#774442"/>
<path d="M209.981 32.4141C212.084 42.0595 211.218 46.6348 207.879 55.662C207.756 55.7856 208.003 56.0329 208.127 55.7856C212.207 47.2531 213.939 41.5648 210.352 32.2904C210.229 31.9194 209.858 32.0431 209.981 32.4141Z" fill="#263238"/>
<path d="M220.245 32.7853C221.482 42.9253 220.74 47.8717 217.895 57.6408C217.895 57.7644 218.143 57.8881 218.143 57.7644C221.729 48.3663 223.336 42.8017 220.74 32.7853C220.74 32.2906 220.245 32.2906 220.245 32.7853Z" fill="#263238"/>
<path d="M231.498 35.1349C231.993 45.0276 231.375 50.5923 227.418 59.6194C227.294 59.8667 227.665 59.9904 227.789 59.743C232.735 50.8396 233.601 44.0383 231.869 35.0112C231.622 34.5166 231.375 34.5166 231.498 35.1349Z" fill="#263238"/>
<path d="M185.374 83.1154C185.374 83.1154 184.384 70.8732 185.25 65.3085C185.992 59.8675 196.379 40.4531 200.707 42.4316C206.272 45.0284 202.438 57.3944 199.842 63.2063C199.842 63.2063 212.702 69.142 211.96 78.6637C211.095 88.1855 185.374 83.1154 185.374 83.1154Z" fill="#774442"/>
<path d="M202.067 43.6681C205.406 49.7274 201.449 57.147 199.346 62.9589C199.223 63.4536 199.47 63.7009 199.841 63.7009C205.035 66.545 211.589 72.1097 212.331 78.4163C212.331 78.54 212.578 78.54 212.578 78.4163C212.825 71.6151 206.766 65.5558 200.83 62.8353C203.056 56.8996 206.766 49.2328 202.067 43.6681C202.067 43.5445 201.943 43.6681 202.067 43.6681Z" fill="#263238"/>
<path d="M170.781 90.5349L213.444 118.606C213.444 118.606 190.443 153.106 176.841 156.074C163.238 159.042 119.092 141.853 96.4621 121.326C73.9562 100.799 82.6123 93.7501 106.726 99.3147C130.839 105.003 154.087 109.702 157.921 107.971C161.878 106.363 170.781 90.5349 170.781 90.5349Z" fill="#FE9563"/>
<path d="M96.4642 121.45C96.0932 120.708 96.0932 119.843 96.0932 119.101C96.0932 118.359 96.2169 117.493 96.4642 116.751C96.8351 117.493 96.8352 118.359 96.8352 119.101C96.8352 119.843 96.7115 120.708 96.4642 121.45Z" fill="white"/>
<path d="M130.716 137.154C130.345 136.412 130.345 135.547 130.345 134.805C130.345 134.063 130.469 133.197 130.716 132.455C131.087 133.197 131.087 134.063 131.087 134.805C131.087 135.67 131.087 136.412 130.716 137.154Z" fill="white"/>
<path d="M152.481 118.605C152.11 117.863 152.11 116.998 152.11 116.256C152.11 115.514 152.234 114.648 152.481 113.906C152.852 114.648 152.852 115.514 152.852 116.256C152.852 116.998 152.852 117.74 152.481 118.605Z" fill="white"/>
<path d="M180.305 102.159C179.934 101.417 179.934 100.551 179.934 99.8092C179.934 99.0673 180.057 98.2017 180.305 97.4597C180.676 98.2017 180.676 99.0673 180.676 99.8092C180.676 100.675 180.552 101.417 180.305 102.159Z" fill="white"/>
<path d="M177.337 139.627C176.966 138.885 176.966 138.02 176.966 137.278C176.966 136.536 177.089 135.67 177.337 134.928C177.708 135.67 177.708 136.536 177.708 137.278C177.708 138.02 177.584 138.762 177.337 139.627Z" fill="white"/>
<path d="M204.047 129.364C203.676 128.622 203.676 127.756 203.676 127.014C203.676 126.272 203.8 125.407 204.047 124.665C204.418 125.407 204.418 126.272 204.418 127.014C204.542 127.756 204.418 128.498 204.047 129.364Z" fill="white"/>
<path d="M98.8117 100.552C99.5537 100.181 100.419 100.181 101.161 100.181C101.903 100.181 102.769 100.304 103.511 100.552C102.769 100.923 101.903 100.923 101.161 100.923C100.419 101.046 99.5537 100.923 98.8117 100.552Z" fill="white"/>
<path d="M117.238 122.686C117.98 122.315 118.845 122.315 119.587 122.315C120.329 122.315 121.195 122.439 121.937 122.686C121.195 123.057 120.329 123.057 119.587 123.057C118.845 123.181 118.103 123.057 117.238 122.686Z" fill="white"/>
<path d="M174.493 150.88C175.235 150.509 176.1 150.509 176.842 150.509C177.584 150.509 178.45 150.633 179.192 150.88C178.45 151.251 177.584 151.251 176.842 151.251C176.1 151.251 175.358 151.128 174.493 150.88Z" fill="white"/>
<path d="M148.154 133.568C148.896 133.197 149.761 133.197 150.503 133.197C151.245 133.197 152.111 133.32 152.853 133.568C152.111 133.939 151.245 133.939 150.503 133.939C149.761 133.939 149.019 133.815 148.154 133.568Z" fill="white"/>
<path d="M187.601 128.251C188.343 127.88 189.209 127.88 189.951 127.88C190.693 127.88 191.558 128.004 192.3 128.251C191.558 128.622 190.693 128.622 189.951 128.622C189.209 128.622 188.343 128.498 187.601 128.251Z" fill="white"/>
<path d="M166.331 109.084C167.073 108.713 167.939 108.713 168.681 108.713C169.423 108.713 170.288 108.836 171.03 109.084C170.288 109.455 169.423 109.455 168.681 109.455C167.939 109.455 167.073 109.331 166.331 109.084Z" fill="white"/>
<path d="M165.094 144.079C164.352 143.708 163.734 143.213 163.115 142.719C162.621 142.1 162.126 141.606 161.755 140.74C162.497 141.111 163.115 141.606 163.734 142.1C164.228 142.595 164.723 143.213 165.094 144.079Z" fill="white"/>
<path d="M181.912 118.482C181.17 118.111 180.552 117.616 179.933 117.121C179.439 116.503 178.944 116.009 178.573 115.143C179.315 115.514 179.933 116.009 180.552 116.503C181.17 116.998 181.664 117.616 181.912 118.482Z" fill="white"/>
<path d="M147.164 147.419C146.422 147.048 145.804 146.553 145.185 146.058C144.691 145.44 144.196 144.945 143.825 144.08C144.567 144.451 145.185 144.945 145.804 145.44C146.298 146.058 146.793 146.677 147.164 147.419Z" fill="white"/>
<path d="M127.502 111.186C126.76 110.815 126.142 110.32 125.523 109.825C125.029 109.207 124.534 108.713 124.163 107.847C124.905 108.218 125.523 108.713 126.142 109.207C126.636 109.702 127.131 110.32 127.502 111.186Z" fill="white"/>
<path d="M89.6624 111.804C88.9204 111.433 88.3021 110.939 87.6838 110.444C87.1892 109.826 86.6946 109.331 86.3236 108.465C87.0655 108.836 87.6838 109.331 88.3021 109.826C88.9204 110.32 89.415 110.939 89.6624 111.804Z" fill="white"/>
<path d="M138.136 119.224C137.765 119.966 137.271 120.584 136.776 121.203C136.158 121.697 135.663 122.192 134.798 122.563C135.169 121.821 135.663 121.203 136.158 120.584C136.776 120.09 137.394 119.595 138.136 119.224Z" fill="white"/>
<path d="M193.289 139.009C192.918 139.751 192.423 140.37 191.928 140.988C191.31 141.482 190.815 141.977 189.95 142.348C190.321 141.606 190.815 140.988 191.31 140.37C191.928 139.875 192.423 139.38 193.289 139.009Z" fill="white"/>
<path d="M111.303 111.804C110.932 112.546 110.437 113.165 109.942 113.783C109.324 114.278 108.829 114.772 107.964 115.143C108.335 114.401 108.829 113.783 109.324 113.165C109.942 112.546 110.561 112.052 111.303 111.804Z" fill="white"/>
<path d="M167.938 125.283C167.567 126.025 167.073 126.643 166.578 127.262C165.96 127.756 165.465 128.251 164.599 128.622C164.97 127.88 165.465 127.262 165.96 126.643C166.578 126.149 167.196 125.654 167.938 125.283Z" fill="white"/>
<path d="M196.628 111.186C196.257 111.928 195.762 112.546 195.267 113.164C194.649 113.659 194.154 114.154 193.289 114.525C193.66 113.783 194.154 113.164 194.649 112.546C195.144 112.052 195.762 111.557 196.628 111.186Z" fill="white"/>
<path d="M161.013 153.106C160.766 153.601 160.519 153.972 160.148 154.466C159.9 154.343 159.653 154.343 159.282 154.219C159.9 153.724 160.395 153.354 161.013 153.106Z" fill="white"/>
<path opacity="0.1" d="M157.426 153.601C138.383 148.16 112.291 135.547 96.586 121.326C74.9456 101.664 81.9942 94.2444 104.005 98.6961L157.426 153.601Z" fill="black"/>
<path d="M205.9 125.036C201.325 121.45 196.378 118.235 191.556 115.02C186.733 111.804 181.91 108.713 176.964 105.622C174.12 103.89 171.276 102.159 168.431 100.428C168.308 100.428 168.184 100.552 168.308 100.552C173.131 103.767 177.953 107.105 182.776 110.444C187.599 113.659 192.421 116.875 197.244 119.966C200.088 121.821 202.809 123.676 205.777 125.283C205.9 125.407 206.024 125.16 205.9 125.036Z" fill="#263238"/>
<path d="M87.6849 100.922C88.1795 102.654 97.2067 113.536 105.121 112.794C107.718 112.546 106.852 98.2018 106.852 98.2018L106.976 97.0889L109.449 82.1262L91.5183 71.8625L88.9215 70.5022C88.9215 70.5022 88.5505 74.5829 88.0559 79.7766C88.0559 80.0239 88.0559 80.2713 87.9322 80.5186C87.9322 80.7659 87.8086 81.1369 87.8086 81.3842C87.6849 82.1262 87.6849 82.9918 87.5613 83.7337C87.5613 84.352 87.4376 84.9703 87.4376 85.5886C87.4376 86.2069 87.3139 86.8252 87.3139 87.4435C87.1903 93.7501 87.4376 100.18 87.6849 100.922Z" fill="#774442"/>
<path d="M88.1799 80.0245C93.0026 91.5248 102.648 95.8529 107.1 97.2132L109.573 82.2504L91.6423 71.9867L89.0455 70.6265C89.0455 70.7501 88.6745 74.8309 88.1799 80.0245Z" fill="#263238"/>
<path d="M128.245 55.1688C134.552 81.0135 119.713 87.6911 114.148 89.0513C109.078 90.2879 91.6421 93.7504 82.8623 68.7713C73.9589 43.6685 83.9753 32.6628 95.4756 29.2004C106.729 25.7379 121.939 29.324 128.245 55.1688Z" fill="#774442"/>
<path d="M119.836 51.4592C119.218 51.4592 118.6 51.4592 117.982 51.3356C117.24 51.3356 116.745 51.3356 116.127 50.9646C115.756 50.7173 115.756 50.099 115.879 49.8517C116.374 49.1097 117.24 48.8624 118.105 48.9861C118.971 48.9861 119.713 49.2334 120.455 49.8517C121.073 50.2226 120.578 51.3356 119.836 51.4592Z" fill="#263238"/>
<path d="M102.4 55.1687C103.018 55.045 103.513 54.6741 104.131 54.5504C104.749 54.3031 105.368 54.1794 105.739 53.5611C105.986 53.1901 105.862 52.6955 105.491 52.4482C104.749 51.8299 103.884 51.9536 103.142 52.3245C102.276 52.6955 101.658 53.0665 101.163 53.9321C100.792 54.5504 101.658 55.416 102.4 55.1687Z" fill="#263238"/>
<path d="M107.097 60.8579C107.097 60.7342 106.973 60.9815 106.973 60.9815C107.344 62.7128 107.592 64.815 105.984 65.6806V65.8042C107.963 65.1859 107.715 62.4654 107.097 60.8579Z" fill="#263238"/>
<path d="M105.12 59.2497C102.276 59.6207 103.142 65.309 105.738 65.0617C108.459 64.8144 107.593 59.0024 105.12 59.2497Z" fill="#263238"/>
<path d="M104.008 59.7451C103.513 60.116 103.142 60.858 102.524 60.9816C101.782 61.1053 101.164 60.6107 100.669 60.116C100.669 60.116 100.545 60.116 100.545 60.2397C100.669 61.3526 101.287 62.4656 102.524 62.4656C103.637 62.4656 104.255 61.3526 104.379 60.2397C104.379 59.8687 104.255 59.6214 104.008 59.7451Z" fill="#263238"/>
<path d="M117.487 58.507C117.487 58.3834 117.61 58.6307 117.61 58.6307C117.858 60.4856 118.352 62.4641 120.084 62.8351V62.9588C117.981 62.9588 117.363 60.2383 117.487 58.507Z" fill="#263238"/>
<path d="M118.724 56.4048C121.568 55.7865 122.681 61.4748 119.96 62.0931C117.487 62.7114 116.374 56.8994 118.724 56.4048Z" fill="#263238"/>
<path d="M120.084 56.5287C120.579 56.7761 121.197 57.2707 121.691 57.147C122.31 57.0234 122.681 56.4051 122.928 55.6631C122.928 55.5395 123.052 55.6631 123.052 55.6631C123.299 56.776 123.175 58.0126 122.062 58.3836C121.197 58.7546 120.208 57.889 119.837 56.8997C119.713 56.776 119.837 56.5287 120.084 56.5287Z" fill="#263238"/>
<path d="M109.326 74.8303C109.82 75.2013 110.315 75.6959 110.933 75.6959C111.552 75.6959 112.294 75.325 112.788 75.0776C112.788 75.0776 112.912 75.0776 112.912 75.2013C112.541 75.9433 111.552 76.4379 110.686 76.4379C109.82 76.4379 109.326 75.6959 109.078 74.954C109.202 74.8303 109.326 74.8303 109.326 74.8303Z" fill="#263238"/>
<path d="M115.754 67.163C115.754 67.163 116.62 69.7599 116.744 70.9965C116.744 71.1201 116.496 71.2438 116.002 71.3674C113.776 72.1094 111.426 71.7384 109.819 70.1308C109.695 70.0072 109.819 69.8835 109.942 69.8835C111.797 70.8728 113.652 70.8728 115.631 70.5018C115.631 70.1308 114.147 66.0501 114.27 66.0501C114.889 65.9264 116.373 66.1737 117.238 66.1737C115.754 60.7327 113.281 55.5391 111.921 49.9744C111.921 49.7271 112.168 49.7271 112.292 49.8508C115.136 55.1681 117.115 61.3511 118.846 67.0394C119.093 67.7813 116.373 67.2867 115.754 67.163Z" fill="#263238"/>
<path d="M115.88 70.8736C115.88 70.8736 115.014 72.7284 113.407 73.7177C112.788 74.0887 112.17 74.336 111.428 74.2123C109.944 74.0887 109.573 72.8521 109.697 71.6155C109.697 70.6262 109.944 69.7606 109.944 69.7606C109.944 69.7606 112.417 71.3682 115.88 70.8736Z" fill="#263238"/>
<path d="M113.407 73.7178C112.788 74.0888 112.17 74.3361 111.428 74.2124C109.944 74.0888 109.573 72.8522 109.697 71.6156C111.181 71.4919 112.912 72.2339 113.407 73.7178Z" fill="#FF99BA"/>
<path d="M84.0984 68.5238C88.7975 70.255 86.3243 62.4645 86.3243 62.4645C86.3243 62.4645 90.1577 59.8677 87.8082 54.303C87.8082 54.303 93.4965 55.6633 93.6202 47.7491C93.6202 47.7491 98.3192 47.1308 97.7009 41.6898C97.7009 41.6898 104.379 45.0286 106.728 38.722C106.728 38.722 111.798 43.792 115.261 38.351C115.261 38.351 117.363 41.9371 121.072 40.4532C121.072 40.4532 121.938 44.2866 124.782 45.2759C124.782 45.2759 115.384 18.3182 91.147 29.2002C69.012 39.3403 78.6574 66.6689 84.0984 68.5238Z" fill="#263238"/>
<path d="M105.119 70.75C101.533 71.121 97.9467 69.0187 96.5864 65.4326C94.9788 61.2282 97.2047 56.5292 101.409 54.9216C105.614 53.314 110.313 55.5399 111.92 59.7443C113.528 63.9487 111.302 68.6478 107.097 70.2553C106.479 70.5027 105.861 70.75 105.119 70.75ZM103.511 55.5399C102.893 55.5399 102.398 55.7872 101.78 55.9109C98.0703 57.2711 96.2154 61.3519 97.5757 65.0617C98.9359 68.7714 103.017 70.6263 106.726 69.2661C110.436 67.9058 112.291 63.8251 110.931 60.1153C109.818 57.0238 106.726 55.2926 103.511 55.5399Z" fill="#FFC727"/>
<path d="M123.421 66.5456C120.329 66.9166 117.114 63.9488 116.248 59.868C115.754 57.7658 115.877 55.6636 116.619 53.9324C117.361 52.0775 118.722 50.9646 120.329 50.5936C121.937 50.2226 123.668 50.7173 125.152 52.0775C126.636 53.3141 127.625 55.169 128.12 57.2712C129.109 61.7229 127.254 65.8037 124.039 66.5456C123.792 66.422 123.668 66.5456 123.421 66.5456ZM121.071 51.4592C120.948 51.4592 120.824 51.4592 120.7 51.5829C119.464 51.8302 118.351 52.8195 117.732 54.3034C117.114 55.7873 116.99 57.7658 117.361 59.6207C118.227 63.4541 121.071 66.051 123.792 65.4327C126.512 64.8144 127.996 61.2283 127.13 57.3949C126.759 55.54 125.77 53.9324 124.534 52.8195C123.421 51.8302 122.184 51.3356 121.071 51.4592Z" fill="#FFC727"/>
<path d="M111.92 60.734L111.054 60.1157C112.044 58.8791 114.517 56.7769 116.99 58.5081L116.372 59.3737C114.146 57.8898 112.044 60.6103 111.92 60.734Z" fill="#FFC727"/>
<path d="M78.4091 70.8739L77.2961 70.6266C77.4198 70.132 78.6564 65.8039 80.8823 64.8146C82.9845 63.949 95.9687 62.0941 96.5869 62.0941L96.7106 63.207C92.5062 63.7017 82.8608 65.1856 81.2532 65.9275C79.893 66.4222 78.7801 69.6373 78.4091 70.8739Z" fill="#FFC727"/>
<path d="M86.2008 68.2767C86.2008 68.2767 79.2759 60.9808 75.8135 63.5777C72.351 66.1745 78.534 77.4275 83.1094 78.4167C87.6847 79.406 88.674 75.0779 88.674 75.0779L86.2008 68.2767Z" fill="#774442"/>
<path d="M77.6684 66.6689C77.5447 66.6689 77.5447 66.7925 77.6684 66.6689C80.8835 67.5345 82.9857 70.1313 84.5933 72.9755C83.4803 71.9862 82.1201 71.4916 80.7598 72.8518C80.6362 72.9755 80.7598 72.9755 80.8835 72.9755C82.1201 72.4808 82.9857 72.6045 84.0986 73.4701C84.8406 74.0884 85.3352 74.954 85.9535 75.696C86.0772 75.9433 86.5718 75.696 86.4482 75.4487C86.4482 75.4487 86.4482 75.4487 86.4482 75.325C85.7062 71.4916 81.8728 66.4215 77.6684 66.6689Z" fill="#263238"/>
<path d="M140.732 218.523C140.732 218.523 61.0959 219.759 41.3105 218.275C41.3105 218.275 57.3862 126.891 78.6555 103.767C79.5211 102.901 80.2631 102.036 81.1287 101.294C82.4889 100.181 82.2416 91.5247 82.8599 90.9064C83.4782 90.2882 109.323 93.6269 109.694 94.2452C110.065 94.8635 111.302 103.149 111.302 103.149C117.113 110.568 136.033 136.537 138.259 147.171C140.485 157.806 133.56 169.677 133.56 169.677L140.732 218.523Z" fill="#FE9563"/>
<path d="M105.119 152.118C104.748 151.376 104.748 150.51 104.748 149.768C104.748 149.026 104.871 148.161 105.119 147.419C105.49 148.161 105.49 149.026 105.49 149.768C105.49 150.51 105.366 151.376 105.119 152.118Z" fill="white"/>
<path d="M118.844 178.952C118.473 178.21 118.473 177.344 118.473 176.602C118.473 175.86 118.597 174.995 118.844 174.253C119.215 174.995 119.215 175.86 119.215 176.602C119.215 177.468 119.091 178.21 118.844 178.952Z" fill="white"/>
<path d="M84.2208 179.817C83.8498 179.075 83.8498 178.209 83.8498 177.467C83.8498 176.725 83.9734 175.86 84.2208 175.118C84.5917 175.86 84.5917 176.725 84.5917 177.467C84.7154 178.333 84.5917 179.075 84.2208 179.817Z" fill="white"/>
<path d="M102.274 207.146C101.903 206.404 101.903 205.538 101.903 204.796C101.903 204.054 102.026 203.188 102.274 202.447C102.645 203.188 102.645 204.054 102.645 204.796C102.768 205.538 102.645 206.28 102.274 207.146Z" fill="white"/>
<path d="M69.504 218.151C69.133 217.409 69.133 216.544 69.133 215.802C69.133 215.06 69.2567 214.194 69.504 213.452C69.875 214.194 69.8749 215.06 69.8749 215.802C69.8749 216.667 69.875 217.409 69.504 218.151Z" fill="white"/>
<path d="M96.4635 121.45C96.0925 120.708 96.0925 119.842 96.0925 119.1C96.0925 118.359 96.2162 117.493 96.4635 116.751C96.8345 117.493 96.8345 118.359 96.8345 119.1C96.8345 119.842 96.7108 120.708 96.4635 121.45Z" fill="white"/>
<path d="M74.8223 148.037C74.4513 147.295 74.4513 146.429 74.4513 145.687C74.4513 144.945 74.5749 144.08 74.8223 143.338C75.1932 144.08 75.1932 144.945 75.1932 145.687C75.1932 146.553 75.0696 147.295 74.8223 148.037Z" fill="white"/>
<path d="M52.4398 191.07C52.0688 190.328 52.0688 189.462 52.0688 188.721C52.0688 187.979 52.1925 187.113 52.4398 186.371C52.8108 187.113 52.8108 187.979 52.8108 188.721C52.9344 189.462 52.8108 190.204 52.4398 191.07Z" fill="white"/>
<path d="M130.716 137.154C130.345 136.413 130.345 135.547 130.345 134.805C130.345 134.063 130.468 133.197 130.716 132.455C131.087 133.197 131.087 134.063 131.087 134.805C131.087 135.671 131.087 136.413 130.716 137.154Z" fill="white"/>
<path d="M88.0547 141.73C88.7967 141.359 89.6623 141.359 90.4043 141.359C91.1462 141.359 92.0118 141.483 92.7538 141.73C92.0118 142.101 91.1462 142.101 90.4043 142.101C89.6623 142.101 88.7967 141.977 88.0547 141.73Z" fill="white"/>
<path d="M85.7034 194.038C86.4453 193.667 87.3109 193.667 88.0529 193.667C88.7948 193.667 89.6605 193.791 90.4024 194.038C89.6605 194.409 88.7948 194.409 88.0529 194.409C87.3109 194.533 86.4453 194.409 85.7034 194.038Z" fill="white"/>
<path d="M127.626 150.881C128.368 150.51 129.234 150.51 129.976 150.51C130.718 150.51 131.583 150.633 132.325 150.881C131.583 151.252 130.718 151.252 129.976 151.252C129.234 151.252 128.492 151.128 127.626 150.881Z" fill="white"/>
<path d="M69.7525 122.192C70.4945 121.821 71.3601 121.821 72.1021 121.821C72.844 121.821 73.7096 121.944 74.4516 122.192C73.7096 122.563 72.844 122.563 72.1021 122.563C71.2364 122.563 70.4945 122.439 69.7525 122.192Z" fill="white"/>
<path d="M69.5051 162.752C70.2471 162.381 71.1127 162.381 71.8546 162.381C72.5966 162.381 73.4622 162.505 74.2042 162.752C73.4622 163.123 72.5966 163.123 71.8546 163.123C71.1127 163.123 70.3707 163.123 69.5051 162.752Z" fill="white"/>
<path d="M53.0574 204.302C53.7994 203.931 54.665 203.931 55.407 203.931C56.1489 203.931 57.0145 204.054 57.7565 204.302C57.0145 204.672 56.1489 204.672 55.407 204.672C54.665 204.796 53.923 204.672 53.0574 204.302Z" fill="white"/>
<path d="M117.237 122.687C117.979 122.316 118.845 122.316 119.587 122.316C120.328 122.316 121.194 122.439 121.936 122.687C121.194 123.058 120.328 123.058 119.587 123.058C118.845 123.181 118.103 123.058 117.237 122.687Z" fill="white"/>
<path d="M101.903 166.586C102.645 166.215 103.51 166.215 104.252 166.215C104.994 166.215 105.86 166.338 106.602 166.586C105.86 166.957 104.994 166.957 104.252 166.957C103.51 166.957 102.645 166.833 101.903 166.586Z" fill="white"/>
<path d="M135.538 217.286C136.28 216.915 137.146 216.915 137.888 216.915C138.63 216.915 139.495 217.039 140.237 217.286C139.495 217.657 138.63 217.657 137.888 217.657C137.022 217.657 136.28 217.657 135.538 217.286Z" fill="white"/>
<path d="M116 194.532C116.742 194.161 117.607 194.161 118.349 194.161C119.091 194.161 119.957 194.285 120.699 194.532C119.957 194.903 119.091 194.903 118.349 194.903C117.607 194.903 116.866 194.78 116 194.532Z" fill="white"/>
<path d="M120.081 215.554C119.339 215.184 118.721 214.689 118.102 214.194C117.608 213.576 117.113 213.081 116.742 212.216C117.484 212.587 118.102 213.081 118.721 213.576C119.215 214.194 119.71 214.813 120.081 215.554Z" fill="white"/>
<path d="M57.1395 173.882C56.3975 173.511 55.7792 173.016 55.1609 172.521C54.6663 171.903 54.1716 171.408 53.8007 170.543C54.5426 170.914 55.1609 171.408 55.7792 171.903C56.2738 172.521 56.7685 173.14 57.1395 173.882Z" fill="white"/>
<path d="M91.3935 160.279C90.6516 159.908 90.0333 159.414 89.415 158.919C88.9204 158.301 88.4257 157.806 88.0547 156.94C88.7967 157.311 89.415 157.806 90.0333 158.301C90.5279 158.919 91.0226 159.414 91.3935 160.279Z" fill="white"/>
<path d="M72.5965 196.14C71.8545 195.769 71.2362 195.274 70.6179 194.78C70.1233 194.161 69.6287 193.667 69.2577 192.801C69.9996 193.172 70.6179 193.667 71.2362 194.161C71.7309 194.78 72.2255 195.398 72.5965 196.14Z" fill="white"/>
<path d="M42.3 215.678C42.1763 215.554 41.929 215.554 41.8054 215.431C41.8054 215.307 41.8054 215.06 41.929 214.936C42.0527 215.183 42.1763 215.431 42.3 215.678Z" fill="white"/>
<path d="M67.5256 136.536C66.7837 136.165 66.1654 135.671 65.5471 135.176C65.0524 134.558 64.5578 134.063 64.1868 133.198C64.9288 133.569 65.5471 134.063 66.1654 134.558C66.7837 135.176 67.2783 135.794 67.5256 136.536Z" fill="white"/>
<path d="M106.726 133.693C105.984 133.322 105.366 132.827 104.747 132.333C104.253 131.714 103.758 131.22 103.387 130.354C104.129 130.725 104.747 131.22 105.366 131.714C105.984 132.333 106.479 132.951 106.726 133.693Z" fill="white"/>
<path d="M132.818 187.979C132.077 187.608 131.458 187.113 130.84 186.619C130.345 186 129.851 185.506 129.48 184.64C130.222 185.011 130.84 185.506 131.458 186C131.953 186.619 132.447 187.237 132.818 187.979Z" fill="white"/>
<path d="M89.6617 111.805C88.9197 111.434 88.3014 110.939 87.6832 110.444C87.1885 109.826 86.6939 109.331 86.3229 108.466C87.0649 108.837 87.6832 109.331 88.3014 109.826C88.9197 110.321 89.4144 110.939 89.6617 111.805Z" fill="white"/>
<path d="M120.699 161.145C119.957 160.774 119.339 160.279 118.721 159.784C118.226 159.166 117.732 158.671 117.361 157.806C118.103 158.177 118.721 158.671 119.339 159.166C119.958 159.784 120.452 160.403 120.699 161.145Z" fill="white"/>
<path d="M120.699 139.01C120.328 139.752 119.834 140.37 119.339 140.988C118.721 141.483 118.226 141.978 117.361 142.349C117.732 141.607 118.226 140.988 118.721 140.37C119.339 139.875 119.957 139.381 120.699 139.01Z" fill="white"/>
<path d="M69.2585 178.209C68.8875 178.951 68.3929 179.569 67.8982 180.188C67.2799 180.682 66.7853 181.177 65.9197 181.548C66.2907 180.806 66.7853 180.188 67.2799 179.569C67.7746 179.075 68.3929 178.58 69.2585 178.209Z" fill="white"/>
<path d="M134.056 168.935C133.685 169.677 133.19 170.295 132.695 170.914C132.077 171.408 131.582 171.903 130.717 172.274C131.088 171.532 131.582 170.914 132.077 170.295C132.695 169.677 133.314 169.182 134.056 168.935Z" fill="white"/>
<path d="M88.7958 209.742C88.4248 210.484 87.9302 211.102 87.4355 211.721C86.8172 212.215 86.3226 212.71 85.457 213.081C85.8279 212.339 86.3226 211.721 86.8172 211.102C87.4355 210.608 88.0538 210.113 88.7958 209.742Z" fill="white"/>
<path d="M85.9516 129.488C85.5806 130.23 85.0859 130.848 84.5913 131.467C83.973 131.961 83.4784 132.456 82.6128 132.827C82.9837 132.085 83.4784 131.467 83.973 130.848C84.5913 130.23 85.0859 129.735 85.9516 129.488Z" fill="white"/>
<path d="M103.511 184.64C103.14 185.382 102.645 186 102.15 186.619C101.532 187.113 101.037 187.608 100.172 187.979C100.543 187.237 101.037 186.619 101.532 186C102.15 185.506 102.769 185.011 103.511 184.64Z" fill="white"/>
<path d="M133.313 202.447C132.942 203.188 132.448 203.807 131.953 204.425C131.335 204.92 130.84 205.414 129.974 205.785C130.345 205.043 130.84 204.425 131.335 203.807C131.953 203.188 132.571 202.694 133.313 202.447Z" fill="white"/>
<path d="M61.4681 152.365C61.0972 153.107 60.6025 153.725 60.1079 154.343C59.4896 154.838 58.9949 155.333 58.1293 155.704C58.5003 154.962 58.9949 154.343 59.4896 153.725C60.1079 153.107 60.7262 152.612 61.4681 152.365Z" fill="white"/>
<path d="M111.301 111.805C110.93 112.547 110.435 113.165 109.941 113.783C109.322 114.278 108.828 114.773 107.962 115.144C108.333 114.402 108.828 113.783 109.322 113.165C109.941 112.547 110.559 112.052 111.301 111.805Z" fill="white"/>
<g opacity="0.1">
<path d="M85.209 100.057C84.9617 98.9437 84.9617 97.7071 84.9617 96.5942C84.9617 95.4812 85.0854 94.2446 85.3327 93.1317C85.58 94.2446 85.58 95.4812 85.58 96.5942C85.4564 97.7071 85.4564 98.9437 85.209 100.057Z" fill="black"/>
<path d="M89.7851 100.675C89.5378 99.5622 89.5378 98.3256 89.5378 97.2127C89.5378 96.0998 89.6614 94.8632 89.9088 93.7502C90.1561 94.8632 90.1561 96.0998 90.1561 97.2127C90.1561 98.3256 90.0324 99.4386 89.7851 100.675Z" fill="black"/>
<path d="M94.4839 101.169C94.2365 100.056 94.2365 98.8199 94.2365 97.707C94.2365 96.594 94.3602 95.3574 94.6075 94.2445C94.8548 95.3574 94.8548 96.594 94.8548 97.707C94.8548 98.8199 94.7312 99.9328 94.4839 101.169Z" fill="black"/>
<path d="M99.0589 101.664C98.8116 100.551 98.8116 99.3143 98.8116 98.2013C98.8116 97.0884 98.9353 95.8518 99.1826 94.7389C99.4299 95.8518 99.4299 97.0884 99.4299 98.2013C99.4299 99.3143 99.4299 100.551 99.0589 101.664Z" fill="black"/>
<path d="M103.759 102.159C103.511 101.046 103.511 99.8095 103.511 98.6966C103.511 97.5837 103.635 96.3471 103.882 95.2341C104.13 96.3471 104.13 97.5837 104.13 98.6966C104.13 99.8095 104.006 101.046 103.759 102.159Z" fill="black"/>
<path d="M108.456 102.778C108.209 101.665 108.209 100.428 108.209 99.3151C108.209 98.2022 108.333 96.9656 108.58 95.8527C108.827 96.9656 108.827 98.2022 108.827 99.3151C108.704 100.428 108.704 101.541 108.456 102.778Z" fill="black"/>
</g>
<path d="M73.7102 107.353C54.6667 126.273 18.1873 166.709 16.9507 186.495C15.2195 212.463 40.3223 250.427 47.7418 261.68C50.957 266.626 84.8396 247.088 85.7052 240.905C86.6944 234.722 59.6131 196.882 58.8712 192.183C58.1292 187.608 77.6673 147.171 87.8074 126.891C100.544 101.17 89.7859 91.2774 73.7102 107.353Z" fill="#774442"/>
<path d="M101.904 273.18C106.232 279.115 116.867 283.32 113.528 287.648C110.684 291.605 103.512 287.895 103.512 287.895C103.512 287.895 110.189 294.573 105.861 297.912C101.533 301.25 94.6081 295.686 94.6081 295.686C94.6081 295.686 100.42 302.116 95.8447 305.084C91.2693 308.052 84.5917 303.229 84.5917 303.229C84.5917 303.229 85.21 305.826 81.0056 306.568C75.07 307.557 65.4246 298.654 61.5911 292.965C57.634 287.153 47.6177 263.04 46.2574 259.33L83.2315 233.98C83.2315 233.98 94.9791 241.028 100.42 245.357C105.861 249.685 120.082 268.975 115.506 272.809C110.931 276.642 101.162 262.916 98.0705 260.072C94.9791 257.228 93.7425 257.475 94.1135 259.825C94.4844 261.308 100.049 270.583 101.904 273.18Z" fill="#774442"/>
<path d="M103.387 287.524C93.8648 281.836 90.7733 277.632 85.8269 267.862C85.7033 267.615 85.456 267.739 85.456 267.986C89.4131 278.003 92.5045 283.815 103.016 288.019C103.634 288.266 103.881 287.895 103.387 287.524Z" fill="#263238"/>
<path d="M95.2245 295.809C85.95 289.008 82.4876 284.556 76.552 274.663C76.4283 274.54 76.181 274.663 76.3046 274.787C81.251 284.927 84.5898 290.615 94.7298 296.18C95.2245 296.427 95.5954 296.056 95.2245 295.809Z" fill="#263238"/>
<path d="M84.5906 303.105C76.0581 295.809 71.9774 291.11 67.5257 280.846C67.402 280.599 67.031 280.723 67.1547 280.97C70.7408 291.852 75.6872 297.911 84.3433 303.352C84.9616 303.723 85.2089 303.6 84.5906 303.105Z" fill="#263238"/>
<path d="M73.0907 209.372L27.3369 232.867C27.3369 232.867 12.1268 195.275 16.8259 181.425C22.7615 164.237 52.1924 125.902 70.6176 108.343C94.4838 85.7131 100.419 104.386 90.2794 125.284C80.3866 145.564 61.7141 186.99 61.3431 189.339C60.8485 192.554 73.0907 209.372 73.0907 209.372Z" fill="#FE9563"/>
<path d="M75.811 109.703C75.4401 108.961 75.4401 108.095 75.4401 107.353C75.4401 106.611 75.5637 105.746 75.811 105.004C76.182 105.746 76.182 106.611 76.182 107.353C76.3057 108.095 76.182 108.837 75.811 109.703Z" fill="white"/>
<path d="M74.8214 148.037C74.4504 147.295 74.4504 146.429 74.4504 145.687C74.4504 144.945 74.5741 144.08 74.8214 143.338C75.1924 144.08 75.1924 144.945 75.1924 145.687C75.1924 146.553 75.0687 147.295 74.8214 148.037Z" fill="white"/>
<path d="M46.998 164.113C46.627 163.371 46.627 162.505 46.627 161.763C46.627 161.021 46.7506 160.156 46.998 159.414C47.3689 160.156 47.3689 161.021 47.3689 161.763C47.4926 162.505 47.3689 163.371 46.998 164.113Z" fill="white"/>
<path d="M52.44 191.07C52.069 190.328 52.069 189.463 52.069 188.721C52.069 187.979 52.1926 187.113 52.44 186.371C52.8109 187.113 52.8109 187.979 52.8109 188.721C52.9346 189.463 52.8109 190.205 52.44 191.07Z" fill="white"/>
<path d="M24.1217 180.56C23.7507 179.818 23.7507 178.952 23.7507 178.21C23.7507 177.468 23.8744 176.602 24.1217 175.86C24.4927 176.602 24.4927 177.468 24.4927 178.21C24.6163 178.952 24.4927 179.818 24.1217 180.56Z" fill="white"/>
<path d="M29.6864 209.496C29.3154 208.754 29.3154 207.889 29.3154 207.147C29.3154 206.405 29.4391 205.539 29.6864 204.797C30.0573 205.539 30.0574 206.405 30.0574 207.147C30.0574 207.889 29.9337 208.631 29.6864 209.496Z" fill="white"/>
<path d="M69.7527 122.193C70.4946 121.822 71.3603 121.822 72.1022 121.822C72.8442 121.822 73.7098 121.945 74.4517 122.193C73.7098 122.564 72.8442 122.564 72.1022 122.564C71.2366 122.564 70.4946 122.44 69.7527 122.193Z" fill="white"/>
<path d="M69.5043 162.752C70.2462 162.381 71.1118 162.381 71.8538 162.381C72.5957 162.381 73.4614 162.505 74.2033 162.752C73.4614 163.123 72.5957 163.123 71.8538 163.123C71.1118 163.123 70.3699 163.123 69.5043 162.752Z" fill="white"/>
<path d="M40.5675 178.952C41.3094 178.581 42.175 178.581 42.917 178.581C43.659 178.581 44.5246 178.705 45.2665 178.952C44.5246 179.323 43.659 179.323 42.917 179.323C42.175 179.323 41.4331 179.323 40.5675 178.952Z" fill="white"/>
<path d="M18.186 196.14C18.928 195.769 19.7936 195.769 20.5355 195.769C21.2775 195.769 22.1431 195.893 22.885 196.14C22.1431 196.511 21.2775 196.511 20.5355 196.511C19.7936 196.511 19.0516 196.511 18.186 196.14Z" fill="white"/>
<path d="M50.0907 143.339C50.8327 142.968 51.6983 142.968 52.4402 142.968C53.1822 142.968 54.0478 143.091 54.7897 143.339C54.0478 143.71 53.1822 143.71 52.4402 143.71C51.6983 143.71 50.9563 143.71 50.0907 143.339Z" fill="white"/>
<path d="M53.0576 204.302C53.7996 203.931 54.6652 203.931 55.4071 203.931C56.1491 203.931 57.0147 204.055 57.7567 204.302C57.0147 204.673 56.1491 204.673 55.4071 204.673C54.6652 204.797 53.9232 204.673 53.0576 204.302Z" fill="white"/>
<path d="M57.1386 173.882C56.3967 173.511 55.7784 173.016 55.1601 172.522C54.6654 171.903 54.1708 171.409 53.7998 170.543C54.5418 170.914 55.1601 171.409 55.7784 171.903C56.273 172.522 56.7677 173.14 57.1386 173.882Z" fill="white"/>
<path d="M34.6325 189.587C33.8905 189.216 33.2722 188.721 32.6539 188.227C32.1593 187.608 31.6646 187.114 31.2937 186.248C32.0356 186.619 32.6539 187.114 33.2722 187.608C33.7668 188.227 34.2615 188.845 34.6325 189.587Z" fill="white"/>
<path d="M40.6919 151.499C39.95 151.128 39.3317 150.634 38.7134 150.139C38.2188 149.521 37.7241 149.026 37.3531 148.161C38.0951 148.532 38.7134 149.026 39.3317 149.521C39.8263 150.016 40.321 150.634 40.6919 151.499Z" fill="white"/>
<path d="M42.2991 215.679C41.5572 215.308 40.9389 214.813 40.3206 214.318C39.8259 213.7 39.3313 213.205 38.9603 212.34C39.7023 212.711 40.3206 213.205 40.9389 213.7C41.4335 214.318 42.0518 214.937 42.2991 215.679Z" fill="white"/>
<path d="M67.5268 136.537C66.7848 136.166 66.1665 135.671 65.5482 135.177C65.0536 134.558 64.559 134.064 64.188 133.198C64.9299 133.569 65.5482 134.064 66.1665 134.558C66.7848 135.177 67.2795 135.795 67.5268 136.537Z" fill="white"/>
<path d="M89.6608 111.805C88.9189 111.434 88.3006 110.939 87.6823 110.445C87.1877 109.826 86.693 109.332 86.3221 108.466C87.064 108.837 87.6823 109.332 88.3006 109.826C88.9189 110.321 89.4135 110.939 89.6608 111.805Z" fill="white"/>
<path d="M37.353 167.204C36.982 167.946 36.4873 168.564 35.9927 169.183C35.3744 169.677 34.8798 170.172 34.0142 170.543C34.3851 169.801 34.8798 169.183 35.3744 168.564C35.9927 168.07 36.4873 167.575 37.353 167.204Z" fill="white"/>
<path d="M42.9177 196.759C42.5467 197.501 42.052 198.119 41.5574 198.738C40.9391 199.232 40.4445 199.727 39.5789 200.098C39.9498 199.356 40.4445 198.738 40.9391 198.119C41.5574 197.625 42.1757 197.13 42.9177 196.759Z" fill="white"/>
<path d="M31.6645 222.356C31.2936 223.098 30.7989 223.716 30.3043 224.335C29.686 224.829 29.1914 225.324 28.3257 225.695C28.6967 224.953 29.1914 224.335 29.686 223.716C30.3043 223.098 30.9226 222.604 31.6645 222.356Z" fill="white"/>
<path d="M85.9507 129.488C85.5798 130.23 85.0851 130.849 84.5905 131.467C83.9722 131.962 83.4776 132.456 82.6119 132.827C82.9829 132.085 83.4775 131.467 83.9722 130.849C84.5905 130.23 85.0851 129.736 85.9507 129.488Z" fill="white"/>
<path d="M61.4663 152.365C61.0953 153.107 60.6007 153.725 60.106 154.344C59.4877 154.838 58.9931 155.333 58.1275 155.704C58.4984 154.962 58.9931 154.344 59.4877 153.725C60.106 153.107 60.7243 152.612 61.4663 152.365Z" fill="white"/>
<path d="M58.7458 122.687C58.3748 123.429 57.8802 124.047 57.3855 124.666C56.7672 125.16 56.2726 125.655 55.407 126.026C55.778 125.284 56.2726 124.666 56.7672 124.047C57.3855 123.553 58.0038 123.058 58.7458 122.687Z" fill="white"/>
<path d="M84.221 138.638C79.3983 148.16 74.8229 157.806 70.3712 167.451C68.1453 172.274 65.9195 177.22 63.6936 182.043C63.199 183.279 60.6021 188.473 60.6021 189.71C60.6021 191.812 69.0109 204.796 72.597 209.495C72.3497 209.495 70.1239 210.855 69.7529 210.979C69.6292 210.979 69.7529 211.226 69.8765 211.103C70.1239 210.979 73.339 209.619 73.2153 209.371C73.2153 209.371 61.8387 190.699 61.8387 190.081C61.8387 188.844 63.9409 184.392 64.5592 183.156C68.8873 173.758 73.2153 164.359 77.4197 154.961C77.7907 154.096 78.1617 153.354 78.5327 152.488C79.3983 151.375 80.2639 150.139 81.1295 148.902C82.2424 147.295 83.1081 145.687 83.9737 143.956C83.9737 143.832 83.85 143.708 83.85 143.832C82.7371 145.316 81.7478 146.924 80.6349 148.531C80.2639 149.026 79.8929 149.644 79.5219 150.139C81.1295 146.305 82.8607 142.472 84.3447 138.762C84.4683 138.638 84.221 138.515 84.221 138.638Z" fill="#263238"/>
<path d="M66.4139 203.93C60.9729 206.156 55.7792 208.753 50.4619 211.226C45.2682 213.699 40.0745 216.296 35.0045 219.016C32.0367 220.624 29.1925 222.231 26.2247 223.715C26.101 223.715 26.2247 223.963 26.3483 223.839C31.542 221.242 36.8594 218.893 42.1767 216.296C47.3704 213.823 52.5641 211.226 57.7577 208.629C60.7256 207.145 63.6934 205.661 66.6612 204.054C66.6612 204.177 66.5375 203.93 66.4139 203.93Z" fill="#263238"/>
</svg>
