<svg width="252" height="279" viewBox="0 0 252 279" fill="none" xmlns="http://www.w3.org/2000/svg">
<path d="M203.973 1.00684H0.924805V278.25H203.973V1.00684Z" fill="#455A64" stroke="#EBEBEB" stroke-width="1.23659" stroke-miterlimit="10"/>
<path d="M203.973 1.00684H0.924805V20.4213H203.973V1.00684Z" fill="#FE9563" stroke="#EBEBEB" stroke-width="1.23659" stroke-miterlimit="10"/>
<path d="M19.1032 10.8999C19.1032 13.6204 16.8773 15.8462 14.1568 15.8462C11.4363 15.8462 9.21045 13.6204 9.21045 10.8999C9.21045 8.17935 11.4363 5.95349 14.1568 5.95349C17.001 5.95349 19.1032 8.17935 19.1032 10.8999Z" fill="#263238"/>
<path d="M39.1363 10.8999C39.1363 13.6204 36.9104 15.8462 34.1899 15.8462C31.4694 15.8462 29.2435 13.6204 29.2435 10.8999C29.2435 8.17935 31.4694 5.95349 34.1899 5.95349C36.9104 5.95349 39.1363 8.17935 39.1363 10.8999Z" fill="#EBEBEB"/>
<path d="M59.0447 10.8999C59.0447 13.6204 56.8188 15.8462 54.0983 15.8462C51.3778 15.8462 49.1519 13.6204 49.1519 10.8999C49.1519 8.17935 51.3778 5.95349 54.0983 5.95349C56.8188 5.95349 59.0447 8.17935 59.0447 10.8999Z" fill="#455A64"/>
<path d="M0.925018 20.4215H203.973" stroke="#EBEBEB" stroke-width="1.23659" stroke-miterlimit="10"/>
<path d="M114.691 219.389H15.0223V228.663H114.691V219.389Z" fill="#C7C7C7"/>
<path d="M189.876 237.443H15.0221V243.008H189.876V237.443Z" fill="#EBEBEB"/>
<path d="M189.876 248.078H15.0221V253.643H189.876V248.078Z" fill="#EBEBEB"/>
<path d="M189.876 258.836H15.0221V264.4H189.876V258.836Z" fill="#EBEBEB"/>
<path d="M189.876 32.1689H15.0223V207.023H189.876V32.1689Z" fill="#DBDBDB"/>
<path d="M83.034 112.177C92.3085 121.699 139.793 167.081 160.445 162.63C185.424 157.312 214.236 141.855 225.489 130.973C231.796 124.914 200.881 94.4936 194.574 99.3163C184.558 106.86 160.445 119.473 156.116 121.204C151.912 122.935 115.68 104.634 94.5343 97.4614C75.6145 91.0312 76.6038 105.376 83.034 112.177Z" fill="#D3766A"/>
<path d="M242.801 117.123C237.36 124.542 220.172 135.3 214.978 136.413C209.784 137.403 190.494 108.837 192.225 103.767C193.956 98.6973 214.36 75.0784 223.387 72.6053C232.414 70.1321 248.49 109.456 242.801 117.123Z" fill="#D3766A"/>
<path d="M194.944 99.0688C194.944 99.0688 198.159 87.4448 197.417 76.9338C196.799 68.0304 194.82 54.9225 199.643 54.4279C209.412 53.3149 214.235 86.0846 214.235 86.0846C214.235 86.0846 214.111 100.8 204.466 102.779C198.407 103.891 194.944 99.0688 194.944 99.0688Z" fill="#D3766A"/>
<path d="M210.033 79.1597C209.538 83.9824 215.598 81.7565 215.598 81.7565C215.598 81.7565 207.683 87.0739 209.167 92.2675C210.651 97.3376 217.7 94.2461 218.318 94.1224C217.947 94.3697 210.775 99.4398 212.877 104.633C214.979 109.951 221.657 105.623 222.028 105.375C221.781 105.746 217.823 111.064 220.173 114.526C224.377 120.585 234.765 107.354 240.7 106.983C240.7 106.983 242.555 116.876 242.679 117.247C242.679 117.247 252.943 104.881 251.83 96.9666C251.335 92.7622 247.254 92.3912 247.254 92.3912C247.254 92.3912 250.964 88.8051 249.48 84.7243C248.738 82.6221 244.781 82.0038 244.781 82.0038C244.781 82.0038 247.625 79.036 246.141 75.4499C244.905 72.6057 241.071 72.4821 241.071 72.4821C241.071 72.4821 242.432 68.2777 240.329 65.8045C236.125 60.8581 211.022 68.6487 210.033 79.1597Z" fill="#D3766A"/>
<path d="M240.701 72.3589C240.825 72.3589 240.825 72.2352 240.701 72.2352C231.798 72.8535 222.276 76.1923 215.351 81.8806C215.104 82.1279 215.351 82.4989 215.598 82.3753C223.76 77.7999 231.427 74.4611 240.701 72.3589Z" fill="#263238"/>
<path d="M245.029 81.8803C245.153 81.8803 245.153 81.633 245.029 81.7567C235.878 82.375 225.244 86.4557 218.071 93.9989C217.824 94.2462 217.824 94.7409 218.195 94.4936C223.265 89.7945 236.744 83.7352 245.029 81.8803Z" fill="#263238"/>
<path d="M221.781 105.994C228.954 99.0694 237.61 95.1123 247.008 92.3918C247.132 92.3918 247.008 92.1445 247.008 92.1445C242.062 92.2682 236.126 94.6177 231.798 96.8436C227.593 98.9458 224.255 101.79 221.534 105.747C221.411 105.871 221.658 106.118 221.781 105.994Z" fill="#263238"/>
<path d="M215.474 81.6326C215.227 81.8799 215.845 82.0035 215.598 82.2509C214.485 83.2401 208.302 89.6704 209.909 92.5146C211.146 94.7404 214.98 94.6168 216.463 93.9985L220.173 92.3909L217.205 95.1114C215.969 96.348 214.732 97.8319 213.99 99.3158C213.248 100.8 212.754 102.655 213.372 104.139C213.99 105.622 215.227 106.612 216.834 106.488C218.442 106.364 220.173 105.622 221.533 104.633L225.491 102.036L222.646 105.87C221.904 106.859 221.162 108.096 220.668 109.332C220.173 110.569 219.926 111.805 220.173 112.918C220.421 114.031 221.286 115.021 222.399 115.268C223.512 115.515 224.872 115.144 226.109 114.65C228.582 113.66 230.932 112.053 233.281 110.569C234.518 109.827 235.631 109.085 236.867 108.467C238.104 107.848 239.34 107.106 240.824 106.983C239.464 107.23 238.227 108.096 237.114 108.714C236.002 109.456 234.889 110.321 233.776 111.063C231.55 112.671 229.2 114.279 226.603 115.639C225.243 116.257 223.883 116.752 222.152 116.504C220.421 116.257 219.184 114.773 218.813 113.166C218.442 111.558 218.813 109.95 219.308 108.59C219.802 107.23 220.544 105.993 221.41 104.757L222.523 105.87C220.915 106.983 219.06 107.848 216.958 108.096C215.845 108.219 214.732 107.972 213.743 107.23C212.754 106.612 212.135 105.622 211.764 104.633C211.022 102.531 211.641 100.305 212.506 98.5739C213.496 96.8426 214.732 95.3587 216.092 93.9985L216.834 95.2351C214.979 95.977 210.651 96.5953 208.302 93.3802C205.952 88.8048 213.99 82.7455 215.474 81.6326Z" fill="#263238"/>
<path d="M215.598 81.7567C214.485 81.8804 213.496 82.004 212.63 81.7567C211.765 81.633 211.023 81.1384 210.775 80.3964C210.528 79.6545 210.652 78.6652 210.899 77.7996C211.146 76.8103 211.517 75.8211 211.888 74.8318C211.023 75.5737 210.404 76.4394 209.91 77.4286C209.415 78.4179 209.044 79.6545 209.539 80.8911C209.786 81.5094 210.281 82.004 210.775 82.375C211.394 82.746 212.012 82.8696 212.507 82.8696C213.743 82.8696 214.732 82.375 215.598 81.7567Z" fill="#263238"/>
<path d="M191.36 99.8099L216.339 143.214C216.339 143.214 171.08 170.543 150.429 163.247C129.654 155.951 94.1639 124.913 86.6207 117.617C70.174 101.788 78.9538 90.5354 95.4005 97.213C111.847 103.891 152.531 119.966 155.004 120.214C157.354 120.337 191.36 99.8099 191.36 99.8099Z" fill="#455A64"/>
<path d="M184.434 112.423C185.423 113.165 186.784 112.917 187.526 111.928C188.267 110.939 188.02 109.578 187.031 108.836C186.042 108.094 184.681 108.342 183.939 109.331C183.197 110.32 183.445 111.681 184.434 112.423Z" fill="#263238"/>
<path d="M174.418 118.111C175.407 118.853 176.767 118.606 177.509 117.616C178.251 116.627 178.004 115.267 177.015 114.525C176.026 113.783 174.665 114.03 173.923 115.02C173.181 116.009 173.429 117.369 174.418 118.111Z" fill="#263238"/>
<path d="M128.046 150.881C110.239 138.886 91.8137 122.563 86.62 117.617C72.2756 103.891 77.0983 93.5035 89.3405 95.482L128.046 150.881Z" fill="#263238"/>
<path d="M15.394 230.642H129.655C130.15 226.437 106.654 110.074 95.4014 95.4822C93.0519 92.3907 85.1377 91.5251 78.4601 92.3907C76.6052 92.6381 74.874 93.0091 73.2664 93.5037H73.1428C71.5352 93.9983 70.2986 94.6166 69.3093 95.3586C50.6368 110.198 14.5284 229.652 15.394 230.642Z" fill="#455A64"/>
<path d="M85.0135 122.192L89.8363 112.67L96.1428 119.595L94.5353 126.397L88.3523 127.139L85.0135 122.192Z" fill="#263238"/>
<path d="M88.3527 127.138L85.3849 196.758L98.4927 219.759L105.17 193.791L94.5356 126.396L88.3527 127.138Z" fill="#263238"/>
<path d="M91.8158 111.805C85.8802 113.907 74.5036 105.869 69.5572 98.8206C69.1862 98.326 69.4336 92.885 69.3099 86.0837C69.1863 82.003 69.0626 77.5512 68.568 73.3468C68.4443 72.4812 71.5358 73.7178 71.5358 73.7178L76.9768 74.4598L95.031 76.6856C95.031 76.6856 93.4234 85.5891 94.289 92.7613C94.4127 93.3796 94.5364 93.8742 94.66 94.3689C94.66 94.4925 94.66 94.4925 94.7837 94.6162C95.773 97.955 97.5042 109.826 91.8158 111.805Z" fill="#D3766A"/>
<path d="M94.7835 94.616C94.7835 94.7397 94.7834 94.7397 94.9071 94.8633C94.1651 95.1106 93.1759 95.2343 92.3103 95.358C74.8743 96.9655 70.1753 75.0779 70.1753 75.0779L77.1002 74.5833L95.1544 76.8091C95.1544 76.8091 93.5468 85.7126 94.4125 92.8848C94.4125 93.5031 94.5361 93.9977 94.7835 94.616Z" fill="#263238"/>
<path d="M62.6328 41.6895C60.1597 50.9639 66.2189 77.4269 73.0202 82.9916C82.9129 91.1531 98.494 91.4004 105.295 79.6528C111.849 68.2761 103.44 34.0226 95.8971 28.9526C84.7678 21.533 66.2189 27.9633 62.6328 41.6895Z" fill="#D3766A"/>
<path d="M85.2611 57.5177C85.2611 57.3941 85.1374 57.6414 85.1374 57.765C85.632 59.4963 85.7557 61.5985 84.2718 62.5877V62.7114C86.2504 61.8458 86.003 59.1253 85.2611 57.5177Z" fill="#263238"/>
<path d="M83.2827 56.0335C80.3149 56.4045 81.4278 62.2164 84.1483 61.8455C86.7451 61.4745 85.6322 55.6625 83.2827 56.0335Z" fill="#263238"/>
<path d="M96.02 55.1682C96.02 55.0445 96.1437 55.1682 96.1437 55.2918C96.391 57.1467 97.0093 59.1252 98.7405 59.3726C98.7405 59.3726 98.8642 59.4962 98.7405 59.4962C96.762 59.6199 96.02 56.8994 96.02 55.1682Z" fill="#263238"/>
<path d="M97.3813 53.0661C100.225 52.3241 101.462 58.0125 98.8652 58.7544C96.2684 59.3727 94.9081 53.6844 97.3813 53.0661Z" fill="#263238"/>
<path d="M80.4391 53.6849C81.1811 53.3139 81.7994 52.943 82.5413 52.4483C83.2833 51.9537 84.0252 51.7064 84.3962 50.8408C84.6435 50.3461 84.3962 49.6042 83.9016 49.3568C82.9123 48.7385 81.7994 49.1095 80.8101 49.6042C79.6972 50.2225 79.0789 50.8407 78.5842 51.9537C78.2133 53.1903 79.4499 54.1795 80.4391 53.6849Z" fill="#263238"/>
<path d="M98.988 49.7271C98.1224 49.7271 97.3805 49.6034 96.6385 49.6034C95.7729 49.4798 95.0309 49.6034 94.1653 48.9852C93.7944 48.6142 93.6707 47.8722 93.918 47.5012C94.5363 46.512 95.7729 46.3883 96.8858 46.3883C98.1224 46.3883 98.988 46.7593 99.9773 47.6249C100.843 48.2432 100.101 49.7271 98.988 49.7271Z" fill="#263238"/>
<path d="M87.1166 74.0881C87.6112 74.4591 88.1059 74.9537 88.8478 74.8301C89.4661 74.8301 90.2081 74.3355 90.7027 74.0881C90.7027 74.0881 90.8264 74.0881 90.8264 74.2118C90.4554 74.9537 89.5898 75.572 88.7241 75.572C87.8585 75.572 87.3639 74.9537 86.9929 74.2118C86.8693 74.0881 86.9929 74.0881 87.1166 74.0881Z" fill="#263238"/>
<path d="M87.9841 68.4006C89.2207 69.7609 90.9519 70.3792 92.5595 70.3792C93.3014 70.3792 94.0434 70.2555 94.7854 70.1318C94.909 70.1318 95.0327 70.0082 95.1563 70.0082C95.28 70.0082 95.4036 69.8845 95.5273 69.8845C95.7746 69.7609 95.7746 69.6372 95.7746 69.3899C95.7746 69.2662 95.7746 69.2662 95.7746 69.2662V69.1426C95.5273 67.7823 95.0327 65.6801 95.0327 65.6801C95.5273 65.8038 98.3715 66.5457 98.2478 65.8038C96.7639 59.8681 95.1563 53.3142 92.5595 47.7496C92.4358 47.5022 92.1885 47.6259 92.1885 47.8732C93.3014 53.5615 95.5273 59.1262 96.7639 64.8145C95.8983 64.6908 94.4144 64.3199 93.6724 64.4435C93.4251 64.5672 94.7854 68.4006 94.7854 69.0189C94.7854 69.0189 94.7854 69.0189 94.7854 69.1426C92.5595 69.8845 90.7046 69.5135 88.1077 68.277C87.9841 68.1533 87.8605 68.277 87.9841 68.4006Z" fill="#263238"/>
<path d="M93.7936 69.7605C93.7936 69.7605 92.8043 71.6154 91.1968 72.481C90.5785 72.7283 89.9602 72.9757 89.2183 72.852C87.7344 72.7283 87.487 71.3681 87.6107 70.1315C87.7343 69.1422 87.9817 68.2766 87.9817 68.2766C87.9817 68.2766 90.4548 70.0078 93.7936 69.7605Z" fill="#263238"/>
<path d="M91.1968 72.357C90.5785 72.6043 89.9602 72.8516 89.2183 72.7279C87.7344 72.6043 87.487 71.244 87.6107 70.0074C89.2182 70.1311 90.8258 70.8731 91.1968 72.357Z" fill="#FF99BA"/>
<path d="M64.9817 61.8462C71.041 60.6096 70.1754 49.3567 70.1754 49.3567C70.1754 49.3567 80.3154 45.6469 80.3154 37.4854C80.3154 37.4854 91.4447 41.9371 98.7406 37.6091C106.036 33.281 103.069 23.7592 101.832 22.028C98.9879 18.0709 93.547 24.8722 93.547 24.8722C93.547 24.8722 82.5413 20.7914 71.5356 24.0066C62.6322 26.6034 59.6644 36.1252 59.6644 36.1252C59.6644 36.1252 54.9653 38.1037 54.0997 41.8135C53.2341 45.5232 61.1483 62.5882 64.9817 61.8462Z" fill="#263238"/>
<path d="M67.7023 49.8509C75.9875 49.3563 80.3156 42.926 80.0682 35.0118C80.0682 34.8882 80.1919 34.8882 80.1919 35.0118C81.3048 42.3077 76.1111 51.5821 67.7023 50.2219C67.5787 50.2219 67.5787 49.8509 67.7023 49.8509Z" fill="#263238"/>
<path d="M59.9118 35.8773C60.0355 35.8773 60.0355 36.001 60.0355 36.001C57.9333 37.4849 55.5837 38.7215 54.3471 41.1947C52.8632 44.0388 53.9762 47.254 55.2128 49.9745C57.1913 54.1789 60.5301 59.4962 64.9818 61.2274C65.2291 61.3511 65.1055 61.7221 64.8582 61.5984C59.6645 59.7435 55.4601 52.8186 53.8525 47.7486C51.874 42.1839 54.8418 38.2268 59.9118 35.8773Z" fill="#263238"/>
<path d="M89.7123 37.8563C93.6694 39.4639 98.9868 38.5983 102.078 35.1358C105.788 31.0551 103.809 25.8614 101.213 21.7807C101.089 21.5334 101.336 21.286 101.46 21.5333C104.675 24.9958 106.035 30.9314 103.191 34.8885C100.223 39.0929 93.9167 40.2059 89.5887 38.4746C89.094 38.2273 89.3414 37.609 89.7123 37.8563Z" fill="#263238"/>
<path d="M69.1861 63.0824C69.1861 63.0824 62.6322 54.9209 58.9224 57.2704C55.2126 59.62 60.4063 71.8622 65.1054 73.2224C69.8044 74.5827 71.1646 70.3783 71.1646 70.3783L69.1861 63.0824Z" fill="#D3766A"/>
<path d="M60.5301 60.7334C60.4065 60.7334 60.4065 60.8571 60.5301 60.8571C63.8689 61.97 65.7238 64.8141 67.0841 67.782C66.0948 66.669 64.7346 66.0507 63.2507 67.2873C63.127 67.411 63.2506 67.5346 63.3743 67.411C64.6109 67.04 65.6002 67.1637 66.5894 68.1529C67.2077 68.8949 67.7024 69.7605 68.197 70.6261C68.3207 70.8734 68.8153 70.7498 68.6916 70.3788C68.6916 70.3788 68.6916 70.3788 68.6916 70.2551C68.4443 66.4217 64.8582 60.8571 60.5301 60.7334Z" fill="#263238"/>
<path d="M94.7816 94.2454L89.0933 109.826L69.3078 91.1539L64.1142 97.5842C64.1142 97.5842 83.8996 127.633 83.8996 126.273L89.7116 112.794L99.1097 121.574L97.6258 98.6971L94.7816 94.2454Z" fill="#455A64"/>
<path d="M99.1101 110.322C98.7391 106.488 98.3681 102.655 97.8735 98.9449C97.8735 98.8213 97.6262 98.6976 97.6262 98.9449C97.0079 102.655 98.6154 117.123 98.7391 120.585C98.3681 120.214 89.9593 112.795 89.9593 112.918C88.7227 115.021 84.3947 124.79 84.1473 125.779C81.0559 120.956 69.0609 103.644 65.4748 99.1922C65.3512 99.0686 65.2275 99.1922 65.2275 99.3159C68.0716 104.386 83.9 127.757 84.0237 127.634C84.1473 127.757 89.4647 115.763 90.083 113.413C91.5669 115.021 99.9757 123.429 99.9757 122.811C99.852 118.978 99.4811 114.155 99.1101 110.322Z" fill="#263238"/>
<path d="M59.5418 104.262C27.7615 133.074 4.76086 182.909 5.50281 196.264C6.49209 213.947 38.5198 244.244 59.4182 253.023C64.7355 255.249 85.1393 211.969 77.4724 209.743C69.3109 207.393 50.3911 190.205 49.5254 189.463C47.5469 187.855 62.757 149.892 69.1872 127.015C76.2358 101.046 73.0207 92.143 59.5418 104.262Z" fill="#D3766A"/>
<path d="M47.6698 246.469C67.9498 261.061 95.4021 264.276 100.225 263.781C104.306 263.41 106.408 263.163 106.408 263.163C113.704 262.545 116.301 259.082 116.301 259.082C116.301 259.082 124.957 260.937 126.812 255.867C129.037 250.303 116.548 248.819 110.118 243.749C95.4021 232.248 77.8425 211.845 73.8855 208.135L47.6698 246.469Z" fill="#D3766A"/>
<path d="M86.2513 242.636C90.5794 245.974 94.9075 249.313 99.6065 251.91C104.924 254.878 110.488 256.733 116.053 258.959C116.177 259.082 116.177 259.33 115.929 259.206C105.171 256.98 93.6709 250.674 85.8804 243.007C85.7567 242.759 86.004 242.512 86.2513 242.636Z" fill="#263238"/>
<path d="M77.9659 250.426C82.4176 253.394 90.2082 258.587 106.284 262.915V263.039C95.5255 261.555 86.1274 257.598 77.7186 250.92C77.4713 250.673 77.7186 250.302 77.9659 250.426Z" fill="#263238"/>
<path d="M93.1769 228.909C91.8166 226.683 93.0532 225.941 97.3813 227.673C101.709 229.404 117.29 239.791 120.506 233.979C123.721 228.167 101.338 213.946 94.0425 211.597C86.623 209.247 73.8861 208.258 73.8861 208.258C77.5958 211.968 85.881 221.613 93.1769 228.909Z" fill="#D3766A"/>
<path d="M48.4118 249.808L73.7619 207.269C73.7619 207.269 50.0193 190.576 49.8957 188.968C49.772 187.36 66.5897 141.483 71.6597 118.853C76.7297 96.2237 74.2565 85.4653 51.9979 110.692C29.7393 135.795 1.29768 178.21 2.78159 196.387C4.2655 214.442 48.4118 249.808 48.4118 249.808Z" fill="#455A64"/>
<path d="M73.8855 207.146C69.9284 203.93 65.9714 200.715 62.0143 197.5C60.0358 195.893 57.9335 194.409 55.955 192.801C54.9657 192.059 53.9764 191.317 52.9872 190.575C52.2452 190.081 50.7613 188.72 50.885 188.473C50.885 188.349 52.8635 181.053 54.1001 177.591C55.3367 173.881 56.5733 170.295 57.6862 166.585C59.5411 160.773 61.396 154.961 63.3745 149.026C64.2401 148.036 64.7348 146.676 65.3531 145.563C66.2187 143.832 66.9606 142.101 67.7026 140.37C67.7026 140.37 67.7026 140.246 67.579 140.37C66.7133 141.977 65.7241 143.585 64.8584 145.192C64.6111 145.687 64.3638 146.305 63.9928 146.8C64.2401 146.182 64.3638 145.44 64.6111 144.821C65.9714 140.741 67.2079 136.66 68.3209 132.455C68.3209 132.332 68.1972 132.332 68.1972 132.332C65.2294 139.38 62.8799 146.676 60.4067 153.848C57.9335 161.144 55.7077 168.44 53.4818 175.86C52.2452 179.941 49.6484 188.473 49.8957 188.844C50.143 189.339 50.885 190.081 51.3796 190.452C51.9979 190.946 52.4925 191.317 53.1108 191.812C55.3367 193.543 57.6862 195.274 59.9121 197.005C64.4875 200.468 69.3102 203.683 74.0092 207.022C73.8855 207.269 73.8855 207.146 73.8855 207.146Z" fill="#263238"/>
<path d="M42.4772 236.082C42.1062 237.318 42.7245 238.678 43.9611 239.049C45.1977 239.42 46.5579 238.802 46.9289 237.565C47.2999 236.329 46.6816 234.969 45.445 234.598C44.2084 234.227 42.8481 234.845 42.4772 236.082Z" fill="#263238"/>
<path d="M34.0682 228.538C33.6972 229.775 34.3155 231.135 35.5521 231.506C36.7887 231.877 38.1489 231.259 38.5199 230.022C38.8909 228.786 38.2726 227.425 37.036 227.054C35.7994 226.683 34.4392 227.302 34.0682 228.538Z" fill="#263238"/>
<path d="M19.1048 222.48C22.0726 224.953 24.7931 227.673 27.5136 230.394C28.8738 231.754 30.2341 233.114 31.5944 234.475C32.9546 235.835 34.1912 237.319 35.5514 238.679C32.46 236.33 29.6158 233.733 26.8953 231.012C24.1748 228.292 21.4543 225.448 19.1048 222.48Z" fill="#263238"/>
</svg>
