<svg width="298" height="290" viewBox="0 0 298 290" fill="none" xmlns="http://www.w3.org/2000/svg">
<path d="M223.634 13.7109H15.5162V221.829H223.634V13.7109Z" fill="#DBDBDB"/>
<path d="M96.5094 108.804C107.515 120.18 164.151 174.219 188.635 168.902C218.313 162.472 252.691 144.17 266.17 131.186C273.713 123.89 236.986 87.7817 229.319 93.47C217.448 102.373 188.635 117.336 183.565 119.438C178.495 121.541 135.338 99.6529 110.236 91.2441C87.6059 83.7009 88.7188 100.766 96.5094 108.804Z" fill="#D3766A"/>
<path d="M286.574 114.74C280.02 123.643 259.616 136.504 253.433 137.617C247.25 138.853 224.249 104.847 226.228 98.6641C228.207 92.6048 252.567 64.5342 263.449 61.5664C274.331 58.8459 293.375 105.589 286.574 114.74Z" fill="#D3766A"/>
<path d="M229.565 93.2227C229.565 93.2227 233.399 79.3729 232.41 66.8833C231.668 56.3723 229.318 40.6676 235.006 40.0493C246.63 38.8127 252.442 77.7653 252.442 77.7653C252.442 77.7653 252.195 95.3249 240.818 97.6745C233.77 99.0347 229.565 93.2227 229.565 93.2227Z" fill="#D3766A"/>
<path d="M247.622 69.48C247.127 75.292 254.176 72.5715 254.176 72.5715C254.176 72.5715 244.778 78.8781 246.633 85.061C248.364 90.9967 256.896 87.5342 257.515 87.2869C257.02 87.6579 248.611 93.7172 250.961 99.7765C253.434 106.083 261.472 101.013 261.966 100.642C261.595 101.137 256.896 107.32 259.741 111.524C264.687 118.696 277.177 102.992 284.225 102.497C284.225 102.497 286.451 114.368 286.575 114.616C286.575 114.616 298.693 99.9001 297.58 90.502C296.962 85.5557 292.139 85.1847 292.139 85.1847C292.139 85.1847 296.591 80.8566 294.86 76.0339C293.994 73.5608 289.171 72.8188 289.171 72.8188C289.171 72.8188 292.634 69.2327 290.779 65.0283C289.295 61.6895 284.843 61.4422 284.843 61.4422C284.843 61.4422 286.575 56.4958 283.978 53.528C278.66 47.716 248.859 56.9904 247.622 69.48Z" fill="#D3766A"/>
<path d="M284.101 61.4423C284.225 61.4423 284.225 61.3186 284.101 61.3186C273.59 62.0606 262.09 66.0177 253.928 72.8189C253.681 73.0662 253.928 73.5609 254.299 73.4372C263.944 67.8725 273.095 63.9155 284.101 61.4423Z" fill="#263238"/>
<path d="M289.294 72.8191C289.418 72.8191 289.418 72.5718 289.294 72.5718C278.412 73.3137 265.675 78.1364 257.143 87.1635C256.895 87.4109 256.895 88.0292 257.266 87.6582C263.325 82.2172 279.401 75.045 289.294 72.8191Z" fill="#263238"/>
<path d="M261.595 101.508C270.127 93.223 280.391 88.524 291.644 85.3089C291.768 85.3089 291.768 85.0615 291.644 85.0615C285.708 85.1852 278.66 88.0293 273.466 90.7498C268.396 93.3467 264.439 96.6855 261.347 101.261C261.224 101.385 261.471 101.632 261.595 101.508Z" fill="#263238"/>
<path d="M254.052 72.5717C253.681 72.819 254.423 73.0663 254.175 73.3136C252.815 74.4265 245.519 82.2171 247.374 85.5559C248.858 88.1527 253.433 88.029 255.164 87.2871L259.493 85.4322L256.03 88.771C254.546 90.2549 253.186 91.9861 252.197 93.841C251.207 95.6959 250.836 97.7981 251.455 99.5293C252.197 101.384 253.681 102.497 255.659 102.25C257.514 102.126 259.616 101.137 261.347 100.024L266.046 96.9325L262.584 101.384C261.718 102.621 260.853 103.981 260.235 105.465C259.616 106.949 259.369 108.433 259.616 109.793C259.864 111.153 260.976 112.266 262.213 112.514C263.573 112.761 265.181 112.39 266.665 111.772C269.633 110.535 272.353 108.68 275.197 106.949C276.558 106.083 278.041 105.218 279.525 104.352C281.009 103.61 282.493 102.744 284.224 102.621C282.617 102.868 281.133 103.857 279.773 104.723C278.412 105.589 277.052 106.578 275.692 107.567C272.971 109.546 270.251 111.524 267.159 112.884C265.552 113.503 263.944 114.245 261.966 113.874C259.987 113.503 258.38 111.772 258.009 109.917C257.514 108.062 258.009 106.207 258.627 104.476C259.245 102.868 260.111 101.384 261.224 99.9003L262.584 101.261C260.605 102.621 258.503 103.734 255.906 103.857C254.67 103.981 253.186 103.61 252.073 102.868C250.96 102.126 250.218 101.013 249.723 99.7766C248.734 97.3035 249.476 94.583 250.589 92.6044C251.702 90.5022 253.186 88.771 254.917 87.1634L255.783 88.5237C253.557 89.3893 248.363 90.1312 245.519 86.2978C242.799 80.9805 252.32 73.6846 254.052 72.5717Z" fill="#263238"/>
<path d="M254.299 72.5712C253.062 72.6948 251.826 72.8185 250.713 72.5712C249.6 72.4475 248.858 71.7056 248.487 70.9636C248.116 70.098 248.363 68.9851 248.611 67.8721C248.982 66.7592 249.353 65.5226 249.724 64.4097C248.734 65.2753 247.992 66.2646 247.374 67.5011C246.88 68.7377 246.385 70.098 246.88 71.7056C247.251 72.4475 247.745 73.0658 248.363 73.4368C248.982 73.8078 249.847 74.0551 250.466 73.9314C252.073 73.9314 253.31 73.3131 254.299 72.5712Z" fill="#263238"/>
<path d="M225.486 94.0887L255.288 145.778C255.288 145.778 201.496 178.3 176.765 169.644C152.033 160.988 109.741 123.891 100.714 115.358C81.0525 96.5619 91.5635 83.083 111.102 90.9972C130.64 98.9114 179.114 118.079 182.082 118.326C184.926 118.573 225.486 94.0887 225.486 94.0887Z" fill="#455A64"/>
<path d="M217.2 109.052C218.437 109.918 220.044 109.67 220.91 108.434C221.776 107.197 221.528 105.59 220.292 104.724C219.055 103.859 217.448 104.106 216.582 105.342C215.716 106.579 215.964 108.31 217.2 109.052Z" fill="#263238"/>
<path d="M205.33 115.977C206.566 116.843 208.174 116.595 209.039 115.359C209.905 114.122 209.658 112.515 208.421 111.649C207.185 110.783 205.577 111.031 204.711 112.267C203.846 113.38 204.093 115.112 205.33 115.977Z" fill="#263238"/>
<path d="M149.931 155.053C128.785 140.708 106.774 121.294 100.715 115.358C83.6497 99.0351 89.338 86.6692 103.93 89.0188L149.931 155.053Z" fill="#263238"/>
<path d="M15.8856 249.899H151.911C152.405 244.953 124.458 106.331 111.103 89.0186C108.259 85.3089 98.8609 84.3196 90.823 85.3089C88.5972 85.5562 86.4949 86.0508 84.6401 86.5455C84.6401 86.5455 84.5164 86.5455 84.3928 86.5455C82.5379 87.1637 80.9303 87.9057 79.8174 88.7713C57.8061 106.578 14.7727 248.662 15.8856 249.899Z" fill="#455A64"/>
<path d="M98.7384 120.675L104.427 109.422L111.97 117.584L110.115 125.745L102.696 126.611L98.7384 120.675Z" fill="#263238"/>
<path d="M102.696 126.611L99.2331 209.462L114.69 236.915L122.852 206L110.115 125.745L102.696 126.611Z" fill="#263238"/>
<path d="M106.899 108.432C99.8506 110.906 86.2481 101.384 80.4361 92.975C80.0651 92.3567 80.1888 85.8028 80.0651 77.8886C79.9415 73.0659 79.6941 67.6249 79.1995 62.8022C79.0758 61.8129 82.6619 63.2969 82.6619 63.2969L89.2159 64.1625L110.733 66.883C110.733 66.883 108.878 77.5176 109.867 86.0501C109.991 86.7921 110.114 87.4104 110.362 88.0287C110.362 88.1523 110.362 88.276 110.485 88.3996C111.475 91.9858 113.7 105.959 106.899 108.432Z" fill="#D3766A"/>
<path d="M110.363 87.9053C110.363 88.0289 110.363 88.1526 110.486 88.2762C109.497 88.5236 108.508 88.6472 107.395 88.7709C86.62 90.6257 81.0553 64.6574 81.0553 64.6574L89.2168 64.0391L110.733 66.7596C110.733 66.7596 108.879 77.3942 109.868 85.9267C109.992 86.545 110.115 87.287 110.363 87.9053Z" fill="#263238"/>
<path d="M72.0281 24.9631C69.1839 36.0924 76.2325 67.5018 84.394 74.1794C96.1416 83.9484 114.69 84.0721 122.728 70.2223C130.642 56.7434 120.626 15.936 111.599 9.87667C98.4911 0.973223 76.3561 8.51643 72.0281 24.9631Z" fill="#D3766A"/>
<path d="M98.9837 43.7594C98.9837 43.6358 98.86 43.8831 98.86 44.0067C99.3547 46.1089 99.602 48.5821 97.8708 49.695V49.8187C100.22 48.9531 99.8493 45.6143 98.9837 43.7594Z" fill="#263238"/>
<path d="M96.6352 41.9045C93.1728 42.3992 94.4094 49.3241 97.6245 48.8294C100.84 48.4584 99.603 41.5335 96.6352 41.9045Z" fill="#263238"/>
<path d="M111.969 41.0388C111.969 40.9151 112.092 41.1624 112.216 41.1624C112.587 43.2646 113.205 45.7378 115.308 46.1088C115.431 46.1088 115.431 46.2325 115.308 46.2325C112.834 46.2325 111.845 43.141 111.969 41.0388Z" fill="#263238"/>
<path d="M113.453 38.4422C116.792 37.5765 118.399 44.3778 115.184 45.2434C112.093 45.9854 110.609 39.1841 113.453 38.4422Z" fill="#263238"/>
<path d="M93.2966 39.3072C94.1622 38.9362 94.9041 38.3179 95.7697 37.8233C96.759 37.205 97.501 36.9577 97.9956 35.8448C98.2429 35.3501 97.9956 34.4845 97.501 34.1135C96.2644 33.3716 94.9041 33.7426 93.7912 34.3609C92.5546 34.9792 91.689 35.8448 91.1944 37.205C90.6997 38.5653 92.1836 39.8019 93.2966 39.3072Z" fill="#263238"/>
<path d="M115.432 34.4846C114.443 34.4846 113.577 34.3609 112.588 34.2372C111.475 34.1136 110.61 34.2372 109.744 33.4953C109.249 33.1243 109.126 32.2587 109.497 31.7641C110.239 30.6511 111.599 30.4038 112.959 30.4038C114.443 30.5275 115.556 30.8985 116.545 31.8877C117.658 32.7533 116.793 34.4846 115.432 34.4846Z" fill="#263238"/>
<path d="M101.212 63.545C101.83 63.916 102.448 64.5343 103.19 64.4107C103.932 64.287 104.798 63.7924 105.416 63.4214C105.54 63.4214 105.54 63.4214 105.54 63.545C105.169 64.4107 104.056 65.1526 103.066 65.1526C102.077 65.1526 101.459 64.4107 101.088 63.545C100.964 63.545 101.088 63.4214 101.212 63.545Z" fill="#263238"/>
<path d="M102.324 56.7433C103.808 58.3509 105.786 59.0928 107.765 59.0928C108.63 59.0928 109.496 58.9692 110.362 58.7219C110.485 58.7219 110.733 58.5982 110.856 58.5982C110.98 58.5982 111.103 58.4746 111.351 58.4746C111.598 58.3509 111.722 58.1036 111.722 57.9799C111.722 57.8563 111.722 57.8563 111.722 57.7326V57.4853C111.474 55.8777 110.856 53.4045 110.856 53.4045C111.474 53.6519 114.813 54.3938 114.566 53.5282C112.835 46.4796 110.98 38.6891 107.765 32.0115C107.641 31.7642 107.27 31.8879 107.394 32.1352C108.754 38.9364 111.351 45.4904 112.835 52.2916C111.845 52.0443 110.114 51.6733 109.249 51.9206C109.001 52.0443 110.485 56.6197 110.609 57.4853C110.609 57.4853 110.609 57.4853 110.609 57.6089C107.888 58.4745 105.662 57.9799 102.695 56.6197C102.324 56.3724 102.2 56.6197 102.324 56.7433Z" fill="#263238"/>
<path d="M109.247 58.352C109.247 58.352 108.011 60.5778 106.156 61.5671C105.414 61.9381 104.672 62.1854 103.806 62.0617C102.075 61.8144 101.828 60.3305 101.951 58.8466C102.075 57.7337 102.446 56.6207 102.446 56.6207C102.446 56.6207 105.166 58.5993 109.247 58.352Z" fill="#263238"/>
<path d="M106.156 61.4436C105.414 61.8146 104.672 62.0619 103.806 61.9383C102.075 61.691 101.828 60.2071 101.951 58.7231C103.806 58.7231 105.785 59.7124 106.156 61.4436Z" fill="#FF99BA"/>
<path d="M74.9958 48.8288C82.2917 47.4686 81.1788 33.9898 81.1788 33.9898C81.1788 33.9898 93.2973 29.538 93.2973 19.8926C93.2973 19.8926 106.529 25.21 115.185 20.0163C123.841 14.8226 120.379 3.56965 118.895 1.46744C115.432 -3.2316 109.002 4.92989 109.002 4.92989C109.002 4.92989 95.8942 0.107196 82.91 3.94063C72.2753 7.0321 68.8129 18.2851 68.8129 18.2851C68.8129 18.2851 63.2482 20.6346 62.1353 25.0863C60.8987 29.4144 70.2968 49.6945 74.9958 48.8288Z" fill="#263238"/>
<path d="M78.2105 34.6075C88.1032 33.9892 93.2968 26.446 92.9259 16.9243C92.9259 16.8006 93.0495 16.8006 93.0495 16.9243C94.4098 25.5804 88.2268 36.7097 78.2105 35.1022C77.9631 35.1022 77.9631 34.6075 78.2105 34.6075Z" fill="#263238"/>
<path d="M68.9355 18.0371C69.0592 18.0371 69.1828 18.1608 69.0592 18.1608C66.586 19.892 63.7418 21.4996 62.2579 24.2201C60.5267 27.6825 61.7633 31.3923 63.2472 34.6074C65.5967 39.5538 69.5538 45.8604 74.8712 48.0863C75.1185 48.2099 74.9948 48.7046 74.6238 48.5809C68.3172 46.355 63.3709 38.1935 61.516 32.1342C59.2901 25.4567 62.8763 20.7576 68.9355 18.0371Z" fill="#263238"/>
<path d="M104.302 20.2635C109.001 22.242 115.432 21.1291 119.018 17.0484C123.346 12.2257 121.12 6.0427 117.905 1.09634C117.781 0.849022 118.028 0.478041 118.276 0.725359C122.109 4.80611 123.717 11.8547 120.254 16.6774C116.792 21.6237 109.249 22.984 104.055 20.8818C103.56 20.8818 103.808 20.1398 104.302 20.2635Z" fill="#263238"/>
<path d="M79.9415 50.4367C79.9415 50.4367 72.151 40.6677 67.6993 43.5118C63.2476 46.356 69.5542 60.8241 75.1189 62.5553C80.6835 64.2865 82.4147 59.0929 82.4147 59.0929L79.9415 50.4367Z" fill="#D3766A"/>
<path d="M69.5548 47.5927C69.4312 47.5927 69.4312 47.7163 69.5548 47.7163C73.5119 49.0766 75.7378 52.4154 77.3453 56.0015C76.1087 54.6412 74.5012 54.0229 72.7699 55.5068C72.6463 55.6305 72.7699 55.7541 72.8936 55.7541C74.3775 55.3832 75.6141 55.5068 76.727 56.7434C77.5926 57.609 78.0873 58.722 78.7056 59.7112C78.9529 60.0822 79.5712 59.8349 79.3239 59.4639C79.3239 59.4639 79.3239 59.4639 79.3239 59.3403C79.0766 54.3939 74.8722 47.84 69.5548 47.5927Z" fill="#263238"/>
<path d="M110.363 87.5348L103.685 106.084L80.19 83.9487L74.007 91.6156C74.007 91.6156 97.5022 127.353 97.6259 125.745L104.551 109.793L115.804 120.304L113.825 92.9758L110.363 87.5348Z" fill="#455A64"/>
<path d="M115.557 106.579C115.062 102.127 114.691 97.5517 114.073 92.9763C114.073 92.8526 113.825 92.729 113.702 92.9763C112.96 97.428 114.815 114.617 114.938 118.821C114.444 118.326 104.551 109.547 104.427 109.794C102.943 112.391 97.8733 124.015 97.5023 125.004C93.7926 119.316 79.5718 98.6646 75.2437 93.3473C75.1201 93.2236 74.8728 93.3473 74.9964 93.4709C78.3352 99.5302 97.1314 127.23 97.3787 127.23C97.626 127.353 103.933 113.009 104.551 110.289C106.282 112.267 116.299 122.16 116.299 121.542C116.546 116.966 116.051 111.154 115.557 106.579Z" fill="#263238"/>
<path d="M68.4417 99.4061C30.602 133.783 3.14969 193.016 4.0153 208.968C5.12823 230.114 43.3389 266.098 68.1944 276.609C74.501 279.206 98.8618 227.764 89.5873 225.044C79.8183 222.2 57.436 201.796 56.3231 200.93C53.9736 198.952 72.1514 153.816 79.6946 126.487C88.3508 95.6963 84.3937 84.938 68.4417 99.4061Z" fill="#D3766A"/>
<path d="M54.2213 268.819C78.3348 286.255 111.104 289.965 116.793 289.47C121.615 288.975 124.089 288.728 124.089 288.728C132.745 287.986 135.836 283.905 135.836 283.905C135.836 283.905 146.1 286.008 148.449 280.072C151.046 273.394 136.207 271.663 128.54 265.728C111.104 252.125 90.0824 227.764 85.507 223.312L54.2213 268.819Z" fill="#D3766A"/>
<path d="M100.223 264.12C105.416 268.077 110.486 272.034 116.175 275.249C122.481 278.712 129.035 281.061 135.713 283.535C135.96 283.658 135.836 283.906 135.589 283.906C122.729 281.309 109.126 273.766 99.728 264.615C99.6043 264.367 99.9753 263.996 100.223 264.12Z" fill="#263238"/>
<path d="M90.4535 273.518C95.7708 277.104 105.045 283.163 124.212 288.357C124.336 288.357 124.212 288.481 124.212 288.481C111.352 286.75 100.222 282.051 90.2061 274.013C89.7115 273.765 90.0825 273.271 90.4535 273.518Z" fill="#263238"/>
<path d="M108.508 247.797C106.9 245.077 108.384 244.335 113.454 246.313C118.648 248.292 137.197 260.658 140.907 253.856C144.74 246.931 118.153 229.99 109.374 227.27C100.594 224.549 85.3837 223.313 85.3837 223.313C89.9591 227.641 99.8518 239.141 108.508 247.797Z" fill="#D3766A"/>
<path d="M55.0868 272.653L85.2596 221.952C85.2596 221.952 57.0653 202.167 56.818 200.188C56.6943 198.21 76.7271 143.553 82.6627 116.719C88.722 89.8846 85.7542 77.024 59.2912 106.95C32.8281 136.875 -1.05444 187.328 0.676787 208.968C2.40801 230.609 55.0868 272.653 55.0868 272.653Z" fill="#455A64"/>
<path d="M85.5069 221.829C80.8079 217.995 76.1088 214.162 71.2861 210.329C68.9366 208.474 66.4634 206.619 63.9903 204.764C62.7537 203.898 61.6407 203.033 60.4041 202.167C59.5385 201.549 57.8073 199.941 57.8073 199.694C57.8073 199.57 60.1568 190.79 61.5171 186.71C63.001 182.382 64.3612 178.054 65.8451 173.726C68.071 166.801 70.2969 159.876 72.5227 152.827C73.512 151.591 74.2539 150.107 74.9959 148.623C75.9852 146.644 76.8508 144.542 77.7164 142.44C77.7164 142.44 77.7164 142.316 77.5927 142.44C76.4798 144.418 75.3669 146.273 74.3776 148.252C74.0066 148.87 73.7593 149.488 73.3883 150.23C73.6356 149.488 73.883 148.623 74.1303 147.881C75.7378 143.058 77.2217 138.112 78.4583 133.165C78.4583 133.042 78.3347 132.918 78.211 133.042C74.7486 141.451 71.7808 150.107 68.9366 158.639C66.0925 167.295 63.3719 176.075 60.7751 184.855C59.4149 189.678 56.1997 199.941 56.447 200.436C56.6944 201.054 57.6836 201.92 58.1783 202.291C58.7966 202.785 59.5385 203.404 60.1568 203.898C62.8773 206.001 65.5978 208.103 68.3183 210.081C73.883 214.162 79.4476 218.119 85.0123 222.076C85.5069 222.076 85.6306 221.953 85.5069 221.829Z" fill="#263238"/>
<path d="M48.0374 256.33C47.5428 257.814 48.4084 259.298 49.7687 259.792C51.2526 260.287 52.7365 259.421 53.2311 258.061C53.7257 256.577 52.8601 255.093 51.4999 254.599C50.1396 254.104 48.532 254.846 48.0374 256.33Z" fill="#263238"/>
<path d="M38.0215 247.427C37.5269 248.911 38.3925 250.395 39.7527 250.889C41.2366 251.384 42.7205 250.518 43.2152 249.158C43.7098 247.674 42.8442 246.19 41.484 245.695C40.1237 245.201 38.5162 245.943 38.0215 247.427Z" fill="#263238"/>
<path d="M20.2152 240.13C23.6776 243.098 27.0164 246.313 30.2315 249.528C31.8391 251.136 33.4467 252.743 35.0542 254.475C36.6618 256.082 38.1457 257.813 39.7533 259.421C36.0435 256.701 32.7047 253.485 29.4896 250.27C26.2744 247.055 23.0593 243.716 20.2152 240.13Z" fill="#263238"/>
</svg>
