<svg width="278" height="327" viewBox="0 0 278 327" fill="none" xmlns="http://www.w3.org/2000/svg">
<path d="M178.254 181.977L159.355 196.141L211.488 265.704L230.388 251.54L178.254 181.977Z" fill="#37474F"/>
<path d="M273.962 312.444L257.763 324.563C254.3 327.16 249.477 326.418 246.881 322.955L198.283 258.158C195.686 254.696 196.428 249.873 199.89 247.276L216.089 235.158C219.552 232.561 224.375 233.303 226.971 236.765L275.569 301.562C278.166 305.025 277.424 309.848 273.962 312.444Z" fill="#263238"/>
<g opacity="0.2">
<path d="M184.68 50.9057C216.337 93.0734 207.804 153.048 165.513 184.581C123.345 216.238 63.3707 207.582 31.8376 165.414C0.180915 123.246 8.71339 63.3952 51.0048 31.7385C93.1725 0.0817852 153.023 8.61426 184.68 50.9057Z" fill="white"/>
<path d="M197.665 74.6479C212.257 113.353 200.262 158.612 165.513 184.704C158.341 190.145 150.674 194.35 142.637 197.441L197.665 74.6479Z" fill="#EBEBEB"/>
<path d="M122.852 13.8076L47.4199 181.86C41.7316 177.161 36.4143 171.597 31.7152 165.414C26.3979 158.241 22.1935 150.698 19.102 142.66L74.7485 18.5067C90.4532 12.8184 106.9 11.3344 122.852 13.8076Z" fill="#EBEBEB"/>
<path d="M178.621 43.6102L106.775 203.625C100.469 203.501 94.2859 202.759 88.103 201.523L164.648 30.9969C169.594 34.7067 174.293 38.9111 178.621 43.6102Z" fill="#EBEBEB"/>
<path d="M135.589 16.6519L58.0547 189.527C57.0655 188.909 56.0762 188.291 55.0869 187.672L132.25 15.7863C133.363 16.0336 134.476 16.2809 135.589 16.6519Z" fill="#EBEBEB"/>
<path d="M47.1717 34.7065L12.7945 111.375C12.6708 108.531 12.6708 105.687 12.9181 102.843L40.8651 40.3949C42.8436 38.4163 44.9458 36.5614 47.1717 34.7065Z" fill="#EBEBEB"/>
</g>
<path d="M108.259 215.99C48.7794 215.99 0.428711 167.64 0.428711 108.16C0.428711 48.6798 48.7794 0.329102 108.259 0.329102C167.739 0.329102 216.09 48.6798 216.09 108.16C216.09 167.64 167.739 215.99 108.259 215.99ZM108.259 12.695C55.5806 12.695 12.7946 55.481 12.7946 108.16C12.7946 160.839 55.5806 203.625 108.259 203.625C160.938 203.625 203.724 160.839 203.724 108.16C203.724 55.481 160.938 12.695 108.259 12.695Z" fill="#263238"/>
</svg>
