<svg width="218" height="152" viewBox="0 0 218 152" fill="none" xmlns="http://www.w3.org/2000/svg">
<path d="M36.0036 151.099L52.0212 148.925L45.7286 102.818L25.5923 105.564L36.0036 151.099Z" fill="#FFC727"/>
<path d="M25.5923 105.564L29.5966 122.954L36.1181 151.099L52.0212 148.925L45.7286 102.818L25.5923 105.564Z" fill="#E78350"/>
<path d="M24.6304 112.631L49.6876 109.25L47.1177 90.2025L22.0605 93.583L24.6304 112.631Z" fill="#FE9C69"/>
<path d="M4.35582 88.7837L24.1489 88.0973L20.0301 57.3208L0.809082 61.8972L4.35582 88.7837Z" fill="#FE9C69"/>
<path d="M29.1851 49.7696L35.3632 95.3051L68.5424 94.8474L148.287 112.467L133.528 3.31885L61.3345 41.532L29.1851 49.7696Z" fill="#FE9C69"/>
<path d="M150.074 112.55C159.842 111.232 164.447 85.5948 160.358 55.2874C156.269 24.98 145.035 1.4794 135.267 2.79731C125.498 4.11522 120.894 29.7526 124.983 60.06C129.072 90.3674 140.305 113.868 150.074 112.55Z" fill="#FE9C69"/>
<path opacity="0.2" d="M150.057 105.396C158.01 104.323 161.512 81.6255 157.879 54.6995C154.246 27.7735 144.855 6.81546 136.902 7.88837C128.95 8.96128 125.448 31.6589 129.08 58.5849C132.713 85.5109 142.105 106.469 150.057 105.396Z" fill="black"/>
<path d="M131.358 58.2363C131.816 61.783 132.388 65.3298 133.074 68.6477C135.134 69.9062 137.651 70.4782 140.282 70.135C146.346 69.3341 150.465 63.728 149.664 57.7787L148.977 52.6302C148.176 46.5664 142.57 42.3332 136.621 43.2485C134.104 43.5917 131.816 44.8502 130.099 46.5664C130.443 50.2275 130.786 54.2319 131.358 58.2363Z" fill="#FE9C69"/>
<path d="M17.9741 100.225L56.1872 98.8516L48.1785 39.2437L10.995 48.1677L17.9741 100.225Z" fill="#E78350"/>
<path opacity="0.2" d="M129.409 11.4419C127.121 14.8742 125.977 18.993 125.061 23.1118C124.261 27.2306 123.688 31.3494 123.574 35.4681C123.46 37.5275 123.46 39.5869 123.46 41.6463C123.574 43.7057 123.574 45.7651 123.688 47.8245C123.917 49.8839 123.917 51.9433 124.146 54.0027C124.375 56.0621 124.604 58.1215 124.833 60.1808C125.977 68.4184 127.693 76.5416 130.324 84.4359C131.697 88.3259 133.299 92.2159 135.244 95.877C137.303 99.4237 139.706 102.97 143.138 105.373C139.935 102.742 137.647 99.1949 135.816 95.5338C133.871 91.8726 132.498 87.9827 131.24 84.0927C128.837 76.1984 127.121 68.0752 126.091 59.952C124.947 51.8289 124.261 43.5913 124.489 35.2393C124.489 31.1205 124.947 27.0017 125.633 22.9974C126.434 19.1074 127.35 15.103 129.409 11.4419Z" fill="black"/>
<path d="M169.262 3.57227C166.973 5.28843 164.685 7.119 162.511 8.83516C160.337 10.6657 158.164 12.4963 155.99 14.4413C153.816 16.3863 151.757 18.2168 149.583 20.2762L146.494 23.2509C145.464 24.2806 144.434 25.3103 143.519 26.34C144.663 25.5391 145.807 24.6238 146.951 23.7086L150.269 20.9627C152.443 19.1321 154.617 17.3016 156.791 15.3566C158.965 13.4116 161.024 11.581 163.198 9.52162C165.257 7.57664 167.317 5.63166 169.262 3.57227Z" fill="#263238"/>
<path d="M149.923 86.7485C153.012 87.6638 156.101 88.4647 159.305 89.2656C162.394 90.0664 165.597 90.7529 168.801 91.4394C172.004 92.1258 175.093 92.8123 178.297 93.3844L183.102 94.1852C184.704 94.4141 186.306 94.6429 187.907 94.8717C186.306 94.4141 184.818 93.9564 183.217 93.4988L178.526 92.3547C175.437 91.5538 172.233 90.8673 169.03 90.1809C165.826 89.4944 162.737 88.8079 159.534 88.2359C156.33 87.6638 153.127 87.0918 149.923 86.7485Z" fill="#263238"/>
<path d="M209.875 77.8249C205.184 77.2528 200.378 76.7952 195.688 76.452C190.997 75.9943 186.192 75.7655 181.501 75.4223C176.81 75.1935 172.005 74.8502 167.314 74.7358L160.22 74.507C157.818 74.507 155.415 74.3926 153.127 74.3926C155.529 74.7358 157.818 74.8502 160.22 75.1935L167.314 75.7655C172.005 76.2232 176.81 76.452 181.501 76.7952C186.192 77.024 190.997 77.3673 195.688 77.4817C200.378 77.5961 205.069 77.8249 209.875 77.8249Z" fill="#263238"/>
<path d="M195.805 5.51709C191.686 7.91971 187.568 10.5512 183.449 13.0682C179.33 15.5852 175.326 18.3311 171.321 20.9625C167.317 23.594 163.312 26.3398 159.308 29.0857L153.359 33.2045C151.414 34.5774 149.469 36.0648 147.524 37.4377C149.583 36.1792 151.643 34.9207 153.702 33.6621L159.88 29.7722C163.999 27.2551 168.003 24.5093 172.008 21.8778C176.012 19.2464 180.016 16.5005 184.021 13.7547C187.911 11.2376 191.915 8.49177 195.805 5.51709Z" fill="#263238"/>
<path d="M151.757 55.8581C157.249 55.286 162.855 54.5995 168.347 53.9131C173.839 53.2266 179.33 52.4257 184.936 51.6249C190.428 50.824 195.92 50.0231 201.412 49.1078L209.649 47.7349C212.395 47.2773 215.141 46.8196 217.887 46.2476C215.141 46.4764 212.395 46.8196 209.535 47.1628L201.297 48.1925C195.805 48.879 190.314 49.6799 184.708 50.4808C179.216 51.2816 173.724 52.0825 168.232 52.9978C162.741 53.9131 157.249 54.8284 151.757 55.8581Z" fill="#263238"/>
</svg>
